<svg width="300" height="320" xmlns="http://www.w3.org/2000/svg"><g fill="none"><path d="M234.684 176.62c-.155 1.404-.962 1.912-2.247 1.442-.5-.177-.97-.02-1.363-.157-1.932-.648-3.907-.765-5.928-.481-.824.128-.979-.845-1.626-1.05-.452-.138-.964-.942-1.374-.236-1.01 1.786-1.912.69-2.923.078-.452-.253-1.196-.627-1.402.022-.189.627-1.09 1.678-.209 1.981 1.689.59 1.219 2.71 2.808 3.337.295.118.667.687 1.148.481.844-.363 1.227.089 1.688.658 1.09 1.314 2.23 2.59 3.74 3.435.49.275 1.226.882 1.59.146.48-.952-.616-.735-1.06-.99-.166-.1-.354-.157-.824-.333 8.124-1.6 14.118 2.079 16.179 9.418.42 1.503.875 3.003 1.6 4.477.669 1.371-.902 2.805-2.139 3.552-1.021.607-1.57 1.382-2.14 2.304-2.079 3.357-4.217 6.673-6.278 10.036-.658 1.062-1.531 1.64-2.748 1.886-2.745.539-5.533.864-8.31.893-9.664.058-19.338.009-29.013.029-1.05.011-1.99-.078-2.72-1.02-.263-.354-.675-1.067-1.253-.607-.599.49.5.834.285 1.618h-1.648c-40.65 0-81.3 0-121.964-.03-.813 0-2.026.56-2.216-1-.073-.6-.421-1.297.634-1.297.54-.02.73-.217.47-.744-.251-.53-.462-.638-1.075-.355-1.953.904-3.739-.097-3.978-2.196-.222-1.886-1.79-1.983-3.096-2.453-.902-.332-2.11-.275-2.05-1.804.537-.057 1.055-.117 1.59-.146 1.313-.069 1.938-.538 1.247-1.912-.332-.647-.295-1.325.109-1.944.42-.647-.098-.824-.53-1.039-.304-.14-.671-.374-.946-.128-.55.538.04.813.363 1.108.51.491.585 1.05-.133 1.254-1.154.332-2.36.981-3.335 1.11-1.123.146-1.431.412-1.717 1.265-.129.404-.32.802-.844.627-.453-.14-.539-.55-.53-.981 0-.962.011-1.902.011-2.866 0-50.86.009-101.727-.02-152.586 0-2.02.942-3.949.129-6.096-.433-1.159 1.378-1.336 2.02-1.15 1.756.545 3.497.275 5.235.275 61.557.03 123.116.04 184.67-.011 1.866 0 2.199.51 2.199 2.258a48049.09 48049.09 0 000 129.31c0 2.47-.687 3.423-3.424 2.805-2.287-.5-4.259-1.746-6.446-2.47-.097-.333-.403-.393-.55-.198-.183.25.149.366.344.474zm-66.5-60.12h2.275c14.776 0 29.552 0 44.337.04.735 0 2.444-.662 1.296 1.41a6368.504 6368.504 0 00-21.273 38.147c-.678 1.246-1.44 1.647-2.854 1.647-15.051-.049-30.102-.01-45.148-.049-1.248 0-1.963.359-2.606 1.42a419.835 419.835 0 01-6.99 11.025c-.673 1.04-.533 1.471.655 1.832 3.044.953 6.047 2.079 9.103 3.003 18.465 5.622 36.625 5.298 54.364-2.799 17.297-7.906 26.186-21.355 26.237-40.372.02-13.203-7.81-22.627-20.584-25.176-1.826-.363-1.472-.835-.727-1.983 7.791-12.294 15.56-24.604 23.314-36.931.647-1.046 1.58-1.968 1.843-3.295-.314-.031-.53-.069-.715-.069-25.207 0-50.4.011-75.598-.049-1.795 0-1.766 1.017-1.888 2.141-.97 9.13-1.899 18.273-2.925 27.407-.164 1.524.142 1.996 1.753 1.979 7.153-.078 14.304-.031 21.448-.031h7.594a4776.655 4776.655 0 00-12.912 20.703zM63.625 173.453c.525.077.775.155 1.014.155 20.697 0 41.406-.01 62.103.022 1.043 0 1.564-.441 2.078-1.257a707.4 707.4 0 018.31-13.102c.953-1.467.414-1.585-.975-1.585-6.943.04-13.885-.053-20.83.049-2.712.04-5.427.574-8.148.26-5.456-.624-9.972-2.733-12.274-8.105-1.84-4.283-1.359-8.604.452-12.7 5.08-11.502 13.652-18.972 26.104-21.61 5.865-1.247 11.755-1.54 17.43.991 1.073.486 1.286-.328 1.65-.933a39.274 39.274 0 005.023-13.927c3.536-22.252-12.06-40.344-34.554-40.064-20.82.25-39.648 17.572-41.615 38.27-1.217 12.827 2.83 23.428 13.28 31.324 1.099.833 1.657.946 2.51-.34 4.944-7.496 9.97-14.941 14.991-22.385.501-.744.683-1.236.06-2.118-2.86-4.102-1.575-9.066 2.874-11.397 2.414-1.265 4.851-1.383 7.094.372 2.262 1.782 2.54 4.202 1.888 6.834-.514 2.026-1.687 3.706-2.857 5.383-12.464 18.018-24.934 36.014-37.41 54.032-2.698 3.862-5.39 7.769-8.198 11.83zm113.82-18.971c4.777 0 9.183-.027 13.6.02 1.076.009 1.37-.778 1.745-1.458 5.906-10.573 11.774-21.158 17.7-31.71.843-1.468.429-1.658-1.011-1.65-5.31.054-10.626.054-15.933-.008-1.13-.011-1.875.361-2.602 1.216-4.022 4.714-8.103 9.374-12.165 14.025-.304.344-.45 1.035-1.314.794.647-4.783 1.236-9.576 1.98-14.34.198-1.22.14-1.717-1.253-1.697-4.572.062-9.124.04-13.677.009-.942-.01-1.483.332-1.944 1.15a9820.494 9820.494 0 01-18.002 32.228c-.503.905-.674 1.459.736 1.439a490.56 490.56 0 0111.842-.011c.99.01 1.422-.446 1.854-1.237 2.296-4.18 4.612-8.32 6.956-12.471.229-.404.246-1.084 1.07-1.015-.041.294-.041.565-.1.813-1.118 4.13-2.226 8.281-3.394 12.387-.352 1.208-.097 1.571 1.15 1.531 2.247-.073 4.494-.053 6.741 0 1.12.03 1.884-.374 2.59-1.256 3.06-3.9 6.2-7.75 9.36-11.587.413-.51.69-1.297 1.924-1.458a3781.38 3781.38 0 01-7.853 14.286zm-49.658-12.01c-2.74 1.176-4.943 1.81-7.303 1.677-3.95-.21-5.726-2.843-4.441-6.577 1.89-5.456 10.395-10.382 16.068-9.444 1.112.175 2.054 1.755 3.153.76.864-.772 1.276-2.061 1.88-3.125.2-.348.378-.72.58-1.075 2.395-4.398 2.165-4.948-2.905-6.164-4.824-1.168-9.61-.612-14.335.631-11.182 2.934-18.716 10.058-22.676 20.737-2.943 7.938 1.467 14.246 9.876 14.909 4.862.383 9.465-.634 13.934-2.493.505-.21.984-.421 1.263-.946 1.532-2.803 3.078-5.573 4.906-8.89zm-2.692 11.615c.47.541.984.421 1.436.421 3.747.012 7.486-.044 11.22.04 1.409.031 2.171-.48 2.854-1.708 4.833-8.8 9.748-17.582 14.643-26.361 1.196-2.172 2.393-4.341 3.747-6.765-4.554 0-8.755.053-12.946-.031-1.316-.02-2.052.352-2.706 1.548-2.703 5.026-5.533 9.974-8.305 14.958-3.34 5.972-6.648 11.96-9.943 17.898zm28.978-37.675c4.454-.612 8.693-2.885 11.304-7.57 2.02-3.614.137-6.699-4.016-6.52-5.325.225-9.462 2.8-12.165 7.38-2.216 3.734-.26 6.798 4.877 6.71zm16.376 80.175c.117 0 .226 0 .344-.01.314 2.051.635 4.11.921 6.15.147 1.022.373 2.022 1.669 1.835 1.325-.206 1.157-1.325 1.02-2.264-.45-2.905-.942-5.788-1.383-8.674-.187-1.198-.415-2.395-1.913-2.461-1.462-.07-1.826 1.088-2.207 2.247-.638 1.883-.875 3.904-2.012 6.025-.747-2.533-1.363-4.652-2.02-6.79-.276-.922-.903-1.549-1.933-1.46-.913.057-1.59.538-1.758 1.46-.569 3.492-1.127 6.976-1.666 10.48-.12.784.295 1.316 1.077 1.462.784.146 1.336-.206 1.522-.99.167-.659.226-1.355.324-2.022.255-1.529.49-3.082.725-4.631 1.05 2.06 1.668 4.062 2.229 6.083.244.864.598 1.522 1.598 1.549 1.052.03 1.393-.705 1.628-1.512.627-2.16 1.235-4.318 1.835-6.477zm-23.604.175c.153.06.301.12.452.178v5.435c0 1.04-.078 2.227 1.429 2.187 1.363-.02 1.314-1.156 1.325-2.098.029-2.994.02-5.974.011-8.98 0-.863.122-1.883-.933-2.257-1.054-.372-1.6.472-2.13 1.177-1.697 2.238-3.398 4.476-5.464 7.221 0-2.63.02-4.631-.015-6.612-.02-.93-.213-1.901-1.403-1.853-1.157.03-1.358.911-1.358 1.893.009 3.129-.011 6.238.009 9.378 0 .784-.129 1.708.877 2.06 1.104.393 1.615-.43 2.138-1.119 1.709-2.193 3.378-4.411 5.062-6.61zm-18.827 2.296c-.142-.02-.28-.04-.421-.058 0-1.943-.011-3.904 0-5.848 0-1.05-.19-2-1.476-1.972-1.199.04-1.276 1.01-1.265 1.933 0 3.06-.011 6.111.009 9.185 0 .844-.21 1.883.933 2.216 1.079.314 1.56-.51 2.098-1.226 1.71-2.249 3.46-4.476 5.509-7.104v6.346c0 1.002.02 2.052 1.383 2.021 1.39-.02 1.3-1.139 1.312-2.087.008-3.071 0-6.114 0-9.174 0-.824.097-1.717-.909-2.052-.97-.306-1.516.392-2.017 1.05-1.732 2.247-3.439 4.516-5.156 6.77zm-17.083-1.234h.036c0 1.835-.025 3.67.008 5.504.01.793.453 1.274 1.286 1.246.804-.02 1.285-.47 1.325-1.255.057-1.019.02-2.04.04-3.062.009-.45-.078-1.077.594-1.088 1.628-.029 3.383-.353 4.824.186.937.355.23 2.1.38 3.209.032.206.012.403.032.618.077.844.44 1.44 1.398 1.403.942-.05 1.265-.659 1.277-1.523v-3.472c0-2.316 0-4.62-.02-6.927-.011-.864-.421-1.472-1.339-1.48-.933-.012-1.305.635-1.336 1.46-.031.824-.069 1.648.011 2.453.122 1.185-.383 1.549-1.518 1.451-1.338-.12-2.954.315-3.97-.294-.918-.57-.24-2.276-.353-3.473-.078-.922-.392-1.64-1.427-1.59-.904.03-1.257.688-1.257 1.55.01 1.669.01 3.375.01 5.084zm92.43.747c1.963 2.098 3.503 3.729 5.026 5.355.627.667 1.422.982 2.158.353.784-.667.452-1.472-.166-2.139-.736-.804-1.483-1.568-2.238-2.355-2.265-2.336-2.265-2.336-.02-4.554a26.16 26.16 0 001.285-1.294c.647-.69 1.529-1.425.53-2.384-.962-.933-1.718-.187-2.394.55-1.276 1.342-2.532 2.678-4.181 4.404 0-1.628-.02-2.63 0-3.62.02-.933-.264-1.689-1.294-1.718-1.09-.04-1.503.69-1.503 1.738.01 3.326 0 6.652 0 9.978 0 .93.344 1.658 1.363 1.686 1.157.042 1.452-.775 1.452-1.786-.018-1.183-.018-2.382-.018-4.214zm-21.555-4.674c.521 1.611.785 2.67 1.188 3.65.47 1.139.687 1.903-1.061 1.804-1.255-.078-1.237 1.196-1.306 1.943-.068 1.002.913.46 1.405.53 1.155.117 2.53-.393 2.843 1.431.158 1.061.825 1.627 1.886 1.217 1.06-.413.785-1.317.51-2.079-1.08-3.082-2.198-6.14-3.317-9.203-.384-1.05-.865-2.078-2.216-2.02-1.337.048-1.749 1.078-2.141 2.149a1242.53 1242.53 0 01-3.16 8.604c-.352.964-.942 2.041.472 2.55 1.414.51 1.689-.666 2.01-1.668.895-2.756 1.8-5.513 2.887-8.908zm31.024 3.867c0 1.629 0 3.257-.01 4.886 0 .824.198 1.589 1.149 1.638 1.7.108 3.394.108 5.092.068.689-.02 1.168-.492 1.168-1.198-.011-.785-.501-1.237-1.306-1.255-.686-.02-1.373-.057-2.04 0-.942.058-1.394-.206-1.317-1.254.06-.824-.117-1.571 1.177-1.591 1.139 0 3.042.707 3.003-1.314-.04-1.826-1.846-1.157-2.943-1.197-.99-.02-1.316-.343-1.277-1.316.04-.844.109-1.482 1.197-1.374.618.06 1.239 0 1.855-.02.864 0 1.502-.392 1.482-1.294-.02-.913-.727-1.216-1.57-1.216-1.158 0-2.317.02-3.473-.043-1.53-.057-2.276.592-2.216 2.179.068 1.436.029 2.87.029 4.3zm-143.911 6.838c3.124.02 5.582-2.264 4.602-4.7-.746-1.863-1.429-3.306-.633-5.433.55-1.483-.816-2.837-2.473-3.171-1.84-.364-3.699-.344-5.146 1.108-.403.403-.27 1.041.058 1.513.372.528.926.528 1.471.353.643-.187 1.265-.51 1.92-.601.722-.109 1.353.208 1.457 1.068.078.805-.323 1.336-1.15 1.336-.986.02-1.928.218-1.917 1.317 0 1.254 1.095 1.334 2.09 1.382 1.064.058 1.62.639 1.496 1.735-.109 1.08-.825 1.592-1.795 1.54-.727-.028-1.447-.323-2.123-.615-.789-.315-1.478-.415-1.9.47-.411.824.03 1.462.717 1.885 1.006.667 2.16.785 3.326.813zm120.481-6.679c0 1.55.011 3.138-.009 4.69-.01.961.078 1.883 1.266 1.94 1.383.08 1.46-.961 1.46-1.952 0-2.521.04-5.041-.04-7.554-.02-.97.217-1.383 1.217-1.343 1.156.04 2.258.178 2.513 1.55.266 1.393-.333 2.226-1.786 2.373-1.277.12-.705 1.079-.785 1.726-.077.864.638.696 1.14.696 1.982.01 3.924-1.5 4.336-3.393.432-1.855-.519-3.936-2.296-4.778-1.921-.924-4.004-.638-6.025-.432-.942.078-.98 1.002-.98 1.766-.01 1.571-.01 3.14-.01 4.711zm-81.19-.179c0-1.432.009-2.845 0-4.28-.009-.998.21-2.257-1.285-2.284-1.649-.03-1.419 1.305-1.458 2.363-.02.55-.078 1.099.01 1.628.284 1.629-.431 2.218-1.996 2.159-1.524-.058-2.712-.373-2.615-2.274.04-.882.01-1.766-.04-2.65-.048-.802-.53-1.237-1.325-1.255-.824-.01-1.256.501-1.305 1.266a32.222 32.222 0 00-.044 2.854c.053 2.788 1.398 4.591 4.179 4.416 2.845-.168 3.577.765 3.189 3.335-.142.922.399 1.591 1.442 1.523.938-.049 1.257-.678 1.257-1.532-.02-1.737-.01-3.503-.01-5.269zm-32.03.08c-.008 1.549-.02 3.12 0 4.689.01.964-.028 2.06 1.359 2.04 1.343-.008 1.363-1.059 1.363-2.04 0-2.451-.02-4.886-.01-7.34 0-.57-.21-1.336.717-1.402 1.236-.089 2.59-.209 2.962 1.402.308 1.317-.21 2.336-1.677 2.451-1.294.08-.844.982-.882 1.611-.073 1.157.833.845 1.436.805 2.311-.198 3.955-1.866 4.057-4.082.109-2.336-1.398-4.23-3.787-4.534-1.207-.166-2.444-.04-3.658-.097-1.286-.058-1.89.53-1.89 1.803.02 1.571.01 3.125.01 4.694zm15.413-.884c-.805-1.59-1.496-2.963-2.188-4.337-.436-.875-.857-1.884-2.09-1.316-1.369.629-.764 1.66-.323 2.592.519 1.097 1.035 2.216 1.609 3.284.922 1.758 1.908 3.446.44 5.427-.495.667-.23 1.492.615 1.864.942.414 1.535-.098 1.917-.942 1.544-3.395 3.115-6.78 4.65-10.176.373-.813.422-1.637-.553-2.06-.942-.404-1.536.088-1.928.952a343.518 343.518 0 01-2.15 4.712zm134.373-5.611c-.942 0-1.884-.02-2.845 0-.843 0-1.747.077-1.787 1.176-.04 1.177.845 1.472 1.826 1.352 1.263-.155 1.44.472 1.412 1.531-.067 2.445-.009 4.887-.009 7.32 0 .941.089 1.863 1.325 1.863 1.188 0 1.414-.873 1.414-1.823.02-2.247.02-4.474-.02-6.71-.04-1.317-.12-2.493 1.815-2.199.756.12 1.334-.332 1.383-1.156.04-.942-.59-1.314-1.443-1.334-1.01-.02-2.04-.02-3.071-.02zm-81.585-.787c1.046-.177 2.158-.235 2.845-1.254.32-.472.43-1.022-.03-1.463-.422-.412-.938-.243-1.255.098-1.046 1.168-2.02 1.157-3.058.01-.441-.48-1.035-.44-1.427 0-.328.373-.213.903.082 1.317.682.98 1.74 1.155 2.843 1.292z" fill="#323F43"/><path d="M264.473 28.66c1.451 1.923 3.534 1.285 5.456 1.407 1.786.113 3.09 0 2.06-2.32-.412-.922.315-.864.845-.765 1.58.315 3.189.623 4.651 1.733-.578.25-1.04.461-1.766.79 1.726.764 3.286 1.455 4.995 2.21-.56.703-1.374.958-1.54 1.718-.078.383-.315.966.254.966 1.188 0 1.824.242 1.658 1.649-.04.319.815.833 1.343 1.123 2.12 1.177 4.436 1.689 6.81 2.041.952.14 2.04-.259 2.413 1.201.14.508 4.367-.458 4.385-1.039.049-1.265-1.425-.412-1.757-1.28.452-.45 1.176-.54 1.815-.612 1.207-.138 2.55-.26 3.268 1.015.59 1.034-.432 3.64-1.54 4.232-.383.208-1.03.1-.638.884.638 1.254-.195 2.07-.99 2.819-1.226 1.177-2.463 2.351-3.739 3.459-.647.54-.875 1.172-.953 1.939-.244 2.47-.166 2.59 2.187 2.482-.215.902-.98 1.516-1.626 1.677-1.886.481-2.21 1.997-2.69 3.468-.853 2.66-1.689 5.32-3.138 7.74-1.611 2.695-2.985 3.198-5.948 2.155-1.983-.705-3.924-1.525-5.907-2.252-.922-.332-1.698-.403-2.531.543-.607.685-1.963 1.766-2.296-.465-.1-.559-.57-.559-.942-.539-1.276.029-2.561.118-3.818.19.616 4.306 3.601 6.649 6.974 8.541 2.296 1.274 4.337 2.761 6.063 4.72 3.111 3.486 7.202 5.797 10.705 8.79 2.384 2.03 4.837 3.978 6.76 6.482 1.395 1.809 1.255 2.088-.881 2.604-1.343.321-2.71.34-4.062.348-2.06.011-2.807 1.026-1.983 2.934.392.906.538 1.314-.618 1.496-.559.095-.942.689-.922 1.219.02.704.716.47 1.128.47 1.099.01.884.813.902 1.446.022.938-.756 2.172 1.012 2.385.107.009.226.48.226.49-1.296.613-.452 2.643-2.078 3.066-.964.24-1.374 1.104-1.492 2.026-.294 2.271-1.413 4.053-3.033 5.617-1.52 1.456-2.305 3.528-3.934 4.955-1.216-2.16-1.588-2.254-2.57 0-1.177 2.637-3.393 1.305-5.13 1.677-1.46.32-2.362-.804-3.06-1.936-.315-.525-.6-1.11-.696-1.693-.727-4.49-3.238-7.816-6.663-10.637-1.275-1.046-2.894-1.088-4.953.288-1.354.884-1.14 2.16-.727 3.43.14.4.844.83.177 1.162-1.806.864-.824 1.575-.08 2.533 1.346 1.717 1.592 4.283 3.985 5.216.14.049.286.343.255.472-.607 2.661.882 3.384 3.16 3.678 1.726.222 4.855 3.905 4.808 5.704-.057 1.718.59 2.444 2.176 2.626.235.02.452.25.678.392-.088.169-.128.31-.206.4-.538.522-1.823-.482-1.846.584-.008 1.026.63 2.13 1.758 2.502.813.275 1.943.793 2.502.182.452-.503.14-1.638-.218-2.453a64.27 64.27 0 01-.822-1.986c1.274-.15 2.491-.585 2.061 1.498-.275 1.294.667 1.86 1.709 2.433 1.059.58 2.823.109 3.148 1.94.02.066.767.097 1.148.008 1.2-.26 2.376-.585 3.555-.913 1.156-.323 2.373-.656 2.942.809.59 1.478-1.413.957-1.482 2.09.97.554 2.364.294 3.807.897-1.875 1.726-4.288 1.844-6.19 2.983-.316.08-.766.24-.57.565.254.399.668.088.99-.142 2.415-.563 4.25.182 5.455 2.562-1.128.48-2.01-.262-2.962-.654-.206 1.217.452 2.09.689 3.175-1.463.275-2.914.632-4.386.765-.824.069-2 .944-2.493-.663-.04-.113-.784-.102-1.156 0-5.886 1.68-11.714 1.204-17.974-.917.824 2.626 1.804 4.603 3.67 6.04 1.952 1.512 3.02 4.191 2.45 6.378-.186.716-.724.372-1.138.412-.825.06-1.855-.527-2.345.592-.678 1.491-1.405 1.511-2.493.332-1.285-1.431-3.02-1.55-4.757-1.373.766 3.62 3.14 5.679 6.397 7.024 1.1.461 1.7.355 2.316-.667.57-.902.864-2.433 2.668-1.491.629.314 1.041-.696 1.55-1.1 1.973-1.608 3.513-1.216 4.426 1.14 1.088 2.845 1.03 3.197-1.325 5.2-2.238 1.884-4.611 3.63-7.262 4.896-3.864 1.854-7.74 4.228-12.066.99.47-.97 2.491-.804 2.356-2.227-.058-.696-1.414-.756-2.373-1.05.206 1.943-.902 2.905-2.425 3.58-.804.362-1.139.147-1.139-.715.02-1.217.02-2.453.02-3.67 0-44.602.01-89.2-.01-133.8 0-3.093.451-2.74-2.669-2.74-62.37 0-124.742 0-187.104-.031-.736 0-2.311.747-1.742-1.263.054-.162-.27-.441-.452-.634-.52-.554-1.795-.793-1.478-1.638.315-.833 1.487-1.074 2.405-1.358.25-.078.518-.118.913-.206-.554-1.436-1.485-1.629-2.733-1.188-1.143.412-1.708-.23-1.354-1.199.723-1.948.05-3.614-.755-5.263-.692-1.409-.333-2.11 1.154-2.433.785-.157 1.638-.19 2.263-.833-.04-.117-.049-.28-.118-.31-3.237-1.325-3.536-1.715-3.399-5.405.073-1.968.383-3.929.554-5.888.08-.922.452-1.569 1.398-.975 1.294.825 2.37.563 3.473-.288.263-.201.602-.363.917-.412.55-.089 1.192-.009 1.467.47.23.42-.545.603-.966 1.456 2.262-1.286 3.576-.373 4.753 1.006.853 1.006 1.458.853 2.11-.304a79.942 79.942 0 013.565-5.706c3.5-5.081 7.226-5.695 12.288-2.098 1.899 1.347 3.492 3.015 5.123 4.664.995 1.002 1.254 1.669-.421 2.15-.52.146-1.237.21-1.556.941 1.567 1.246 3.577.907 5.746 1.419-1.496.813-2.389 2.231-3.96.744-.5-.485-1.427-.303-1.775.328-.334.614.481.853.845 1.197.518.46 1.152.682 1.888.563.44-.074 1.054-.344 1.314.157 1.256 2.384 1.972.505 2.825-.32.19-.19.32-.431.48-.65 1.488-1.973 1.488-1.973 3.012 0 .382-1.65.687-3.238 1.456-4.665.525-.962 1.1-1.957 2.356-2.017 1.256-.062 1.948.833 2.497 1.806.634 1.14.975 2.345 2.885 1.387 1.266-.633 2.55.51 3.606 1.399.647.54.161.789-.27 1.026-3.214 1.688-2.551 4.19.564 5.657.672.32 1.334.7 2.061.873 1.536.372 2.905.703 3.224 2.684.122.74 1.124 1.908 2.139.933.654-.634 3.087-.732 1.358-2.693-.113-.117-.093-.359-.17-.731 1.285.222 2.462.48 3.645.614.574.057 1.32.08 1.398-.794.058-.735-.28-1.156-1.083-1.114-.623.04-1.148-.353-1.255-.844-.142-.583.49-1.1.911-1.217 3.047-.824 3.468-3.528 4.323-5.886.382-1.061.854-1.034 1.906-1.006 5.072.162 9.637 2.272 14.44 3.424 4.2 1.015 8.236 2.147 11.764 5.125.068-.505.088-.675.108-.833.058-.678-.507-1.677.452-1.903.765-.177 1.295.676 1.56 1.378.539 1.398 1.46 1.968 2.943 1.948.785-.009 1.715.215 1.933 1.148.088.42-.286.975.53.853.606-.078.626-.45.569-1.044-.315-3.047-.785-6.07-.472-9.185.472-4.81 4.817-7.696 9.28-5.877.824.333 1.629.72 2.453 1.024.785.29 1.334.738 1.177 1.64-.146.864.097 1.294 1.04 1.172 1.45-.182-.316-1.094.482-1.507a6.217 6.217 0 014.403 2.773c2.453 3.747 6.192 5.606 10.145 7.166.58.221 1.256.751 1.875.128.188-.19.266-.671.166-.93-.315-.825-1.097-.623-1.755-.674-.472-.035-.953 0-1.638 0 1.166-1.476 1.57-2.344-.824-2.546-1.394-.106-2.808-1.112-2.513-3.091.078-.452.078-1.286-.078-1.339-1.648-.49-2.393-2.034-3.632-2.914-1.05-.731-1.666-1.467-2-2.533.166-.4.452-.356.706-.319 2.648.421 3.375.23 5.514-1.438-.59-.824-1.58-.986-2.336-1.496-.687-.45-1.431-.833-1.529-1.779-.049-.392.155-.651.567-.663.924-.02 1.944-.392 2.493.794.217.42.519.997 1.002.924.813-.109.42-1.026.784-1.585 3.366 1.755 6.71 3.557 10.098 5.263 1.44.732 2.855 1.629 4.552 1.689.54.02.924.279 1.09.764.656 1.815 1.875 2.648 3.865 2.493 1.079-.093 1.866.74 2.63 1.414 1.08.957 2.238 1.717 3.71 2.021 1.176.24 2.275.882 3.031-.736.304-.642 1.177-.693 1.815-.21.647.505.206.888-.246 1.276-.518.446-.264.966-.04 1.476.306.696.793.776 1.483.696 1.274-.15 2.55-.412 3.827.097.658.255 1.373-.06 1.176-.873-.372-1.717.696-1.688 1.844-1.766.982-.064 1.943-.412 2.925-.064-.217 1.216-2.444 1.43-1.316 2.865.696.904 1.923 1.398 2.923 2.072-.167.202-.218.352-.306.372-.636.173-1.538-.363-1.873.36-.374.832.342 1.55.882 2.133 1.108 1.192 2.402 1.897 4.16 1.476 2.512-.603 4.817.146 7.082 1.135.343.15.866.711 1.001.239.373-1.208.933-1.467 2.001-.864.138.068.57-.153.636-.333.08-.186-.017-.59-.186-.702-.43-.32-.922-.53-1.44-.816.598-.7 1.502-.161 2.078-.662.747-.652 2.041-1.226.187-2.178-1.902-.995-.275-1.973.177-3.065-1.128-.574-2.276-1.155-3.493-1.79.47-.942 1.689-.82 2.188-1.625-1.108-.756-3.278.04-3.11-2.493.04-.46-1.57-.029-1.865.692-.421 1.014-1.04 1.276-2.159 1.325.579-1.232.942-2.37 2.374-2.963-1.864-1.458-3.484-2.801-5.192-3.998-.579-.403-1.05-.702-.714-1.398.412-.922 1.117-.337 1.512-.049 2.962 2.232 6.612 3.46 9.134 6.31 1.05 1.205 2.344 1.156 3.738.824 1.002-.23 2.13-.634 1.904 1.216-.1.893.744.574 1.207.623 1.206.133 1.913.716 1.873 1.956-.04 1.379.638 1.751 1.892 1.722 1.276-.029 2.72-.142 2.799 1.786.009.104.166.295.233.284 3.14-.412 3.434 2.88 5.3 4.115.745.496 1.372.46 2.09.403 1.03-.08 1.952.04 2.324 1.168.373 1.104.667 2.032 2.139 1.135.54-.32.913.25.784.793-.186.745.805 1.848-.57 2.231-1.814.49-3.669 1.064-5.435-.19-.166-.222-.372-.412-.607-.122-.005.029.193.292.29.441zM185.765 6.961c-.058-.044-.098-.113-.138-.113-.04 0-.089.069-.128.113.057.04.128.08.186.118a.346.346 0 01.08-.118zm96.055 142.194c-.04-.04-.078-.089-.118-.135-.04.046-.08.073-.14.115.058.04.12.088.178.128l.08-.108zM31.166 181.064c-.74-1.176-2.78.373-3.144-1.52-.25-1.307 1.139-1.256 1.733-1.777-.284-.864-1.035-.793-1.503-1.13-.538-.381-1.715-.066-1.604-1.128.089-.922.97-1.197 2.11-1.336-3.699-2.717-7.207-5.299-10.72-7.869-.495-.372-1.56-.332-1.187-1.294.381-.99 1.254-.844 2.09-.55 3.796 1.414 7.452 3.14 10.337 5.983 3.335 3.298 7.397 4.397 11.809 4.849 1.496.157 1.447-1.314 2.32-1.804-.554-.678-1.064-.55-1.467-.392-2.595 1.097-4.454-.08-6.134-1.886-.46-.5-.853-1.077-1.391-1.471-.816-.607-1.305-1.1-.432-2.052.21-.226.299-.989.128-1.128-2.513-2.176-1.717-6.367-4.979-8.066-.756-.392-.898-1.217-.833-1.972.108-1.456-.667-2.263-1.618-3.265-5.072-5.395-9.684-11.144-8.177-19.25.663-3.592-.476-5.626-3.758-6.842-1.064-.404-2.021-1.135-2.974-1.782-4.875-3.302-5.626-8.277-1.961-12.957.663-.86 1.516-1.59 1.802-2.694.319-1.266.15-2.192-1.487-2.061-.404.029-.825.069-1.226.01-.525-.079-.893-.482-.917-.967-.02-.501.496-.561.906-.57.481-.015.962-.044 1.345-.383.452-.404 1.339-.526.833-1.516-.383-.756-.722-1.219-1.697-.889-1.427.488-2.905.497-4.68.124 1.516-1.265 1.254-2.078-.383-2.512-.393-.102-.816-.26-.882-.745C2.91 96.739.77 93.672.883 90.018c.04-1.246.08-2.423.789-3.517 1.09-1.649 2.331-2.473 4.42-1.669 2.28.864 4.685 1.385 6.394 3.366.711.825 1.755 1.285 2.8 1.62 2.08.64 4.16 1.23 5.729 2.91.26.274.853.966 1.285.133.24-.461.25-.913-.514-1.248-.78-.337-.691-.53.833-2.207.776.7.776 1.7.958 2.601.181.874.308 1.736.921 2.451.315.348.554.865 1.09.76.49-.086.404-.642.49-1.019.335-1.33 1.168-2.06 2.582-2.211.073.921-.913 1.17-1.075 1.859-.201.813-1.755 2.262.805 2.06.534-.04.44.59.633.911.913 1.536 3.094 2.684 4.17 2.19 3.001-1.374 4.612-3.867 3.92-6.063-.19-.585-.402-1.16-.573-1.742-1.398-4.651-.324-7.452 3.989-9.586 1.387-.683 1.657-1.343 1.043-2.62-.352-.735-.633-1.506-.902-2.282-.303-.862-1.196-1.999-.496-2.6.776-.666 2.11-.974 3.277-.553 1.075.392 1.917.221 2.713-1.265v132.425c-.816-.372-1.314-1.08-2.15-1.1-.926-.039-1.427.69-2.213 1.12-.712-1.12-.501-2.533-1.286-3.57-.724-1.002-1.305-1.669-2.09-.08-.22.452-.403 1.042-1.176 1.053-.55-1.188.853-1.709.957-2.737-1.112 0-2.231.058-3.335 0-1.035-.06-1.478-.618-.574-1.354 1.809-1.471-.146-2.768-.622-2.845-1.815-.295-.683-1.254-.57-2.079h-4.11c2.06-1.892.622-2.679-.632-3.57-4.583-3.306-9.254-6.497-13.506-10.224-.953-.844-2.83-1.726-2.09-3.04.565-1.002 2.356 0 3.557.372 4.101 1.254 8.03 2.963 11.955 4.689 1.061.454 2.032.769 2.887-.293zm110.9 66.444c.19.186.361.43.583.51 6.45 2.158 9.963 7.966 14.957 11.93.344.264.747.607.705 1.491-2.422-.077-4.571-1.099-6.544-2.218-2.158-1.216-4.345-2.158-6.75-2.708-.994-.217-1.828-.53-2.874.098-1.021.627-2.169.53-2.408-1.06-.069-.451-.193-.766-.683-.844-2.156-.363-4.494-.944-6.433-.02-1.897.902-3.366.275-5.061-.06-.937-.206-2.052-1.666-2.963.12-.046.089-.622-.1-.948-.177-6.309-1.689-12.511-3.71-18.457-6.446-1.487-.678-3.366-1.363-1.899-3.719.31-.5-.142-1.041-.574-1.413-1.305-1.088-2.874-1.787-4.49-1.255-1.475.49-1.367-.286-1.298-1.139.053-.627.525-1.247-.339-1.786-1.035-.627-2.001-1.529-2.172.636-.03.461-.04 1.07-.6 1.2-.563.128-.793-.453-1.055-.816-1.438-1.902-2.845-3.827-5.819-2.511.146-.492.137-.65.222-.727 2.302-1.963 2.35-3.217.03-5.416-1.045-.99-2.06-1.98-2.885-3.149-.997-1.44-2.227-2.15-4.141-1.735-.058.607 1.079 1.57-.34 1.981-1.094.315-1.455-.04-1.79-1.156-.452-1.512-2.4-.528-3.306-1.492-.789-.864-1.01-2.533-2.9-1.708-1.301.57-2.194-.295-2.846-1.343-.51-.804-.554-1.383.703-1.325 1.088.049 2.182 0 3.266 0 40.63 0 81.259 0 121.897.02.716 0 1.503-.255 2.15.314.864.785 2 1.512 1.912 2.737-.066 1.03-1.325 1.228-2.17 1.649-.469.244-.999.44-1.45.735-4.16 2.64-8.634 4.248-13.6 4.368-1.05.029-2.196.206-2.834.988-1.423 1.689-3.15 1.826-5.425 1.297 1.157 1.746 2.668 2.55 3.885 3.67 1.15 1.039 2.404 1.99 3.306 3.295.618.901 1.03 1.863.403 2.845-.627.98-1.677 1.077-2.725.962-.678-.098-1.425-.098-1.993-.393-2.736-1.451-4.61-.08-6.257 1.884-.836 1.001-1.63 1.451-2.965.982-1.217-.461-2.03.655-1.755 1.451.412 1.157.492 1.844-.53 2.61-1.254.962-2.347 1.962-4.182 1.452-5.227-1.503-10.474-2.923-15.726-4.348-.844-.226-1.722-.341-2.586-.51-.155-.02-.412-.108-.45-.046-.16.217.042.257.204.295z" fill="#323F43"/><path d="M177.014 300.589c-.736 5.18-1.432 10.244-2.199 15.268-.206 1.336-.372 2.767-1.96 3.295-2.405.804-4.477-.57-4.22-3.06.415-3.856 1.13-7.674 1.746-11.492a1095.09 1095.09 0 011.886-11.49c.43-2.53 1.884-3.896 4.128-3.993 1.895-.089 3.504 1.148 4.21 3.423 1.55 4.995 3.041 9.999 4.621 15.188.893-.824 1.03-1.874 1.305-2.787 1.228-4.102 2.365-8.221 3.632-12.323.922-2.994 3.08-4.122 5.77-3.218 1.716.568 2.434 1.853 2.708 3.501.922 5.574 1.804 11.136 2.708 16.709.333 2 .707 4.022.922 6.063.235 2.218-.705 3.492-2.53 3.698-1.935.228-3.16-.636-3.513-2.796-.866-5.299-1.59-10.626-2.415-16.18-.864 1.129-.98 2.325-1.314 3.416a507.713 507.713 0 00-3.375 11.96c-.519 1.892-1.237 3.531-3.552 3.589-2.16.058-3.043-.833-3.847-3.69-1.314-4.65-2.648-9.28-3.982-13.92-.111-.377-.122-.818-.73-1.161zm38.166 18.368c-2.239 0-4.484.02-6.73-.011-1.297-.02-2.436-.393-3.063-1.65-.607-1.205-.078-2.284.689-3.168a288.89 288.89 0 015.61-6.455 50.897 50.897 0 005.162-6.79c.844-1.325 1.236-2.765.578-4.279-.5-1.128-1.423-1.786-2.737-1.726-1.274.06-2.238.58-2.708 1.797a56.01 56.01 0 00-.881 2.482c-.57 1.611-1.58 2.533-3.384 2.178-1.855-.352-2.307-1.737-2.307-3.337 0-5.316 6.036-9.89 11.518-8.762 7.28 1.503 9.538 8.292 4.975 15.022a57.525 57.525 0 01-5.876 7.28c-.384.432-1.11.824-.776 1.502.264.559.98.264 1.5.284 1.689.02 3.395-.058 5.084.02 2.098.108 3.257 1.216 3.237 2.905-.02 1.708-1.216 2.688-3.357 2.71-2.178.015-4.354-.002-6.535-.002zm22.939.43c-3.934-.218-7.242-1.55-9.223-5.239-.392-.716-.687-1.491-.627-2.324.12-1.425.855-2.385 2.258-2.817 1.431-.412 2.404.217 3.082 1.354.864 1.44 1.755 2.757 3.521 3.18 2.207.51 4.368-.747 4.878-2.905.5-2.079-.658-3.67-3.063-4.202-.667-.137-1.334-.232-2-.392-1.237-.295-1.747-1.157-1.805-2.373-.068-1.217.295-2.16 1.503-2.61.755-.275 1.538-.504 2.324-.747 1.57-.51 2.041-1.766 1.778-3.207-.295-1.522-1.405-2.307-2.974-2.23-1.463.09-2.493.825-3.306 2.064-1.326 1.952-2.62 2.373-4.014 1.46-1.51-1.01-1.797-3.071-.649-4.875 2.198-3.492 6.652-5.123 11.109-4.022 5.16 1.254 7.751 7.102 4.62 11.353-1.48 2.03-1.068 2.521.56 3.953 3.828 3.295 3.052 9.564-1.256 12.518-2.027 1.374-4.223 2.118-6.716 2.06zm-90.579-6.103c1.679.206 3.186-.392 4.675-1.108 1.622-.785 3.076-.638 4.075.99.836 1.372.177 3.453-1.392 4.377-7.177 4.14-19.325 1.855-21.366-10.165-.942-5.593.15-10.756 4.494-14.767 4.439-4.11 12.05-4.757 16.655-1.6 1.414.98 2.041 2.218 1.314 3.827-.764 1.709-2.127 1.904-3.76 1.297-.957-.355-1.944-.628-2.925-.882-3.517-.865-7.495.961-8.81 4.728-1.618 4.592-.575 9.802 2.782 12.206 1.295.93 2.704 1.194 4.257 1.097zm-80.848-9.066c0-4.081.03-8.163-.008-12.265-.02-1.726.815-2.51 2.461-2.51 2.247.02 4.49.077 6.733.108 3.222.058 5.513 1.735 6.64 4.563 1.124 2.805.703 5.621-1.686 7.849-.633.6-.897 1.176.23 1.648 3.635 1.46 4.67 5.239 4.078 8.456-.622 3.355-3.213 5.963-6.883 6.613-3.233.59-6.519.303-9.78.215-1.483-.047-1.86-1.097-1.86-2.425.02-4.09.009-8.172.009-12.252h.066zm3.768 6.418c.881 1.374-1.565 4.102 1.216 4.935 1.9.58 4.18.42 6.22-.324.129-.049.25-.108.37-.157 2.374-.98 3.566-3.198 3.085-5.728-.663-3.495-3.488-4.909-9.453-4.27-3.047.332-.672 3.01-1.427 4.425-.1.206-.011.53-.011 1.119zm0-13.139h.04c0 .678-.04 1.363.008 2.03.065.767-.42 1.689.47 2.23 1.292.784 6-.147 7.073-1.346 1.321-1.471 1.57-4.09.545-5.688-1.054-1.649-4.881-2.748-7.266-1.804-1.775.705-.52 2.51-.864 3.776-.055.244-.006.539-.006.802zm30.914 14.296c3.705-5.339 7.404-10.675 11.122-15.993a514.019 514.019 0 013.767-5.31c.614-.844 1.41-1.316 2.462-.99 1.075.332 1.064 1.314 1.064 2.196.011 8.37.011 16.73.011 25.098 0 1.208-.295 2.258-1.742 2.258-1.584.02-1.804-1.139-1.804-2.393v-19.762c-.975.146-1.276.784-1.65 1.316-4.071 5.926-8.129 11.862-12.206 17.77-.574.833-1.254 1.6-1.897 2.384-.525.627-1.199.862-2.012.667-.873-.235-1.064-.981-1.265-1.708-.08-.315-.06-.667-.06-1.01-.009-8.036-.02-16.062-.02-24.068 0-.97.031-1.961.942-2.57 1.387-.903 2.741.139 2.752 2.178.031 5.513.011 11.008.011 16.533v3.206c.173.06.355.129.525.198z" fill="#E5832A"/><path d="M45.995 70.063c-1.409-.643-1.978-1.83-2.282-3.193-.348-1.6-1.124-2.741-2.63-3.626-2.134-1.254-2.604-3.88-3.978-5.788-.545-.755-1.237-1.476-1.649-2.187-1.006-1.722-1.447-3.782-3.756-4.332-1.429-4.419-4.886-7.647-6.911-11.705-.286-.563-.415-1.305.009-1.697.633-.594 1.668-.324 2.032.21 1.342 1.946 3.605 3.165 4.438 5.465.36 1.004.813 1.418 1.888 1.352 1.277-.067 2.369.42 3.273 1.378.412.432.917.933 1.458 1.057 1.52.361 2.595.764 3.189 2.6.403 1.227 2.437 1.49 3.885 1.81.815.181 1.314.352 1.305 1.387-.049 5.575-.02 11.14-.03 16.72.019.165-.136.338-.24.549z" fill="#323F43"/><path d="M165.75 304.296c0 3.738.02 7.485 0 11.233-.02 2.59-1.108 3.895-3.16 3.844-2.001-.04-3.011-1.245-3.011-3.745-.01-7.693-.03-15.374.02-23.077.01-2.854 2.346-4.325 4.653-3.031 1.237.687 1.5 1.844 1.5 3.14-.022 3.867-.002 7.751-.002 11.636zM57.066 305.71c0 3.59.011 7.202 0 10.791 0 1.277-.048 2.63-1.801 2.61-1.642-.02-1.88-1.196-1.88-2.57.036-7.064-.04-14.126.065-21.19.02-1.825-.634-2.452-2.376-2.297-.941.078-1.897 0-2.85-.03-1.116-.03-2.089-.342-2.078-1.698.02-1.432 1.026-1.786 2.227-1.786 1.569 0 3.125.02 4.696.02 3.067 0 6.118.02 9.174-.009 1.225-.011 1.985.44 1.996 1.726 0 1.283-.815 1.775-1.985 1.795-.882.02-1.782.12-2.644-.02-2.178-.332-2.655.678-2.57 2.668.142 3.317.04 6.652.04 9.99h-.014zm35.489-1.432v12.243c0 1.297-.073 2.59-1.782 2.648-1.708.043-2.11-1.096-2.1-2.59.02-8.221.03-16.453 0-24.686 0-1.502.565-2.699 2.08-2.699 1.496 0 1.83 1.266 1.81 2.66-.041 4.141-.008 8.283-.008 12.424zm16.041-13.05c-2.51.03-4.709-1.15-5.405-2.885-.31-.793-.46-1.57.266-2.258.853-.784 1.496-.117 2.13.372 2.752 2.08 3.153 2.08 5.965-.077.594-.461 1.157-1 1.972-.352.816.627.683 1.373.384 2.198-.65 1.737-2.839 2.971-5.312 3.002z" fill="#E5832A"/><path d="M185.352 139.768a7.277 7.277 0 00-.157.24c-.04-.04-.117-.09-.117-.118.03-.093.088-.173.128-.255.04.055.089.095.146.133z" fill="#323F43"/></g></svg>