<svg width="299" height="299" xmlns="http://www.w3.org/2000/svg"><g fill="none"><path d="M149.367 298.423H40.221c-18.947 0-34.71-12.546-38.919-31.028C.65 264.53.4 261.591.4 258.642c0-72.895-.01-145.8.01-218.69C.41 20.536 13.657 4.527 32.718.825 35.29.328 37.905.18 40.53.18c72.663.01 145.323 0 217.996.01 19.17 0 34.795 12.325 39.132 30.762.689 2.92.963 5.889.963 8.887 0 72.98.01 145.976-.012 218.962-.009 17.47-10.893 32.365-27.5 37.765-3.95 1.307-8.035 1.854-12.2 1.854-36.516.002-73.014.002-109.542.002zM3.77 149.298c0 35.82 0 71.642.01 107.47 0 1.792.03 3.597.227 5.379 2.158 18.776 17.93 32.893 36.772 32.893 72.48.02 144.954.02 217.423.02 2.17 0 4.338-.183 6.465-.567 18.056-3.426 30.58-18.442 30.58-36.872.041-72.195.02-144.4.02-216.595 0-3.08-.344-6.135-1.053-9.152-3.63-15.511-17.621-27.302-33.5-28.162a81.424 81.424 0 00-4.681-.133c-71.373-.01-142.754 0-214.128-.01-12.028 0-22.05 4.338-29.76 13.624-5.822 6.99-8.405 15.158-8.396 24.219.042 35.958.02 71.918.02 107.886z" fill="#256BB1"/><path d="M3.77 149.298c0-35.951.01-71.928 0-107.88 0-9.067 2.583-17.234 8.395-24.216C19.875 7.916 29.886 3.58 41.925 3.58c71.366.01 142.754 0 214.128.01 1.54 0 3.112.041 4.684.132 15.865.863 29.87 12.651 33.498 28.165a41.044 41.044 0 011.053 9.151c0 72.196.019 144.398-.02 216.596 0 18.42-12.526 33.437-30.58 36.862-2.13.396-4.297.568-6.465.568-72.458 0-144.944.02-217.416 0-18.847 0-34.619-14.126-36.777-32.912-.207-1.763-.228-3.577-.228-5.37-.032-35.841-.032-71.66-.032-107.483zm282.986-.021v-57.67c0-16.04.02-32.098 0-48.147 0-7.218-2.086-13.78-6.586-19.453-6.507-8.18-15.119-11.954-25.496-11.954-60.327.012-120.665 0-181 0-9.837 0-19.672.012-29.52 0-6.545-.009-12.682 1.514-18.096 5.27-9.211 6.393-13.765 15.305-13.765 26.491-.019 55.635-.01 111.293-.01 166.92 0 14.857-.046 29.7.01 44.564.06 17.428 13.774 31.24 30.99 31.24 70.859.02 141.722.01 212.58 0 4.914 0 9.618-1.043 13.932-3.385 11.086-6.039 16.921-15.432 16.942-28.076.089-35.26.019-70.526.019-105.8z" fill="#FCFCFD"/><path d="M286.756 149.277c0 35.274.07 70.537-.021 105.809-.042 12.635-5.858 22.04-16.963 28.077-4.295 2.351-9.019 3.384-13.92 3.384-70.85.009-141.722.02-212.58 0-17.214 0-30.919-13.81-30.99-31.23-.056-14.875-.01-29.72-.01-44.564 0-55.639-.016-111.297.01-166.93 0-11.188 4.555-20.1 13.765-26.493 5.416-3.753 11.55-5.281 18.097-5.27 9.849.01 19.682 0 29.521 0h180.988c10.377 0 19.01 3.775 25.496 11.952 4.507 5.674 6.607 12.237 6.607 19.455v105.81zm-14.389.02c0-67.683-54.94-122.718-122.544-122.76-68.116-.04-122.904 54.565-123.111 122.74-.219 67.516 55.025 122.881 122.588 122.881 67.965.021 123.067-54.998 123.067-122.86z" fill="#256BB1"/><path d="M272.367 149.298c0 67.862-55.1 122.881-123.067 122.86-67.563 0-122.807-55.365-122.588-122.881.218-68.175 54.995-122.78 123.111-122.74 67.605.042 122.544 55.068 122.544 122.76zm-52.579-83.514c.01.06.01.111.01.172 0-.012.02-.042.011-.06-.011-.03-.02-.07-.049-.1-11.207-10.575-24.095-18.305-38.84-22.85-17.234-5.325-34.718-5.88-52.283-1.95-28.523 6.376-51.693 21.248-69.165 44.718-11.87 15.935-18.553 33.93-19.851 53.795-1.11 17.077 2.088 33.472 8.563 49.258.081.193.06.559.556.519.167-3.679.49-7.335 1.07-10.974 2.406-15.24 8.009-29.26 16.332-42.191 13.984-21.76 32.89-38.228 55.167-50.958 18.938-10.821 39.112-18.107 60.838-20.812 10.82-1.349 21.623-1.349 32.404.556 1.721.295 3.423.986 5.237.877zM79.212 232.663c.293.353.353.486.446.567 10.386 9.607 22.186 16.942 35.59 21.521 17.91 6.142 36.19 7.014 54.636 3 26.558-5.765 48.649-19.14 65.974-40.065 13.954-16.86 21.94-36.277 23.519-58.184.911-12.635-.63-25.037-4.156-37.197a122.669 122.669 0 00-4.8-13.491c-.06.593-.102.849-.123 1.105-.263 4.676-.77 9.337-1.684 13.941-3.526 17.93-11.307 33.9-22.495 48.247-17.54 22.577-39.982 38.779-66.026 50.146-15.295 6.677-31.212 11.075-47.886 12.514-8.188.728-16.344.63-24.474-.534-2.791-.393-5.512-1.024-8.521-1.57zm146.89-113.456c-.304-.074-.428-.128-.558-.128-14.946 0-29.893 0-44.816-.02-.677 0-1.095.308-1.528.734-4.551 4.307-9.067 8.623-13.628 12.888-.71.654-1.005 1.298-1.005 2.26.042 14.396.042 28.787 0 43.164-.009 1.135.273 1.46 1.428 1.46 11.158-.042 22.335-.06 33.498-.02 3.263.02 6.142-1.022 8.705-2.94 6.393-4.784 9.17-13.84 6.858-22.233-2.149-7.807-8.065-12.344-16.149-12.356-4.784-.009-9.565.033-14.349-.018-1.065-.021-1.298.276-1.277 1.297.06 3.991.06 7.998-.02 11.989-.021 1.165.383 1.337 1.4 1.316 3.87-.049 7.739-.042 11.59-.02 2.826.02 4.265 1.478 4.244 4.255-.02 2.674-1.49 4.114-4.225 4.132-4.954 0-9.93-.041-14.893.021-1.135.021-1.44-.25-1.44-1.416.042-9.52.042-19.042 0-28.549 0-1.165.305-1.423 1.44-1.423 9.423.056 18.846.02 28.29.056.852 0 1.459-.244 2.056-.823 3.344-3.238 6.721-6.414 10.105-9.612 1.377-1.31 2.765-2.605 4.274-4.014zm-152.679 52.07h1.898c8.095 0 16.188.042 24.284-.021 1.242-.019 1.555.337 1.479 1.52-.1 1.833.025 3.69-.042 5.512-.042.952.218 1.235 1.207 1.214 4.325-.049 8.644-.049 12.97 0 .972.021 1.328-.172 1.316-1.235-.042-19.374-.03-38.737 0-58.09 0-.989-.288-1.219-1.247-1.212-4.367.042-8.735.042-13.107 0-.86-.01-1.448.268-2.062.847a25068.16 25068.16 0 01-41.205 38.94c-.588.546-.842 1.113-.83 1.922.035 6.284.016 12.596.035 18.889 0 .314-.217.728.297 1.014 14.121-13.293 28.277-26.603 42.635-40.133 0 5.326-.01 10.31.01 15.31 0 .913-.568.76-1.1.76H89.887c-.502 0-.976-.033-1.414.384a8924.166 8924.166 0 01-15.05 14.379zm144.512-64.689c.1-.228.19-.34.223-.465 3.544-9.94 7.093-19.881 10.619-29.82.25-.694.19-.973-.63-1.182-8.735-2.314-17.589-3.78-26.628-4.233-14.847-.744-29.305 1.286-43.328 6.265-14.805 5.261-27.993 13.317-40.13 23.18-4.961 4.025-9.652 8.334-14.238 12.9.989.176 1.565-.456 2.21-.83 14.174-8.091 28.7-15.438 44.304-20.417 10.57-3.374 21.31-5.626 32.496-4.92 11.388.715 21.32 4.753 29.488 12.89 2.035 2.025 3.851 4.277 5.614 6.632zM81.072 191.94c-3.663 10.283-7.235 20.346-10.842 30.427-.353.973.172 1.033.83 1.196 14.577 3.749 29.35 5.288 44.387 3.667a110.014 110.014 0 0030.848-7.863c18.36-7.618 33.984-19.232 48.01-33.123.223-.211.646-.384.444-1.042a50.21 50.21 0 00-1.802 1.014c-13.791 7.896-27.938 15.058-43.094 20.051-11.155 3.659-22.504 6.173-34.365 5.26-9.1-.687-17.397-3.555-24.653-9.22-3.733-2.9-6.87-6.365-9.763-10.367zm94.872-72.721c-.323-.098-.404-.14-.495-.14-17.926 0-35.865 0-53.796-.02-.83 0-.976.278-.976 1.039.03 4.544.042 9.109 0 13.653-.01.902.24 1.16 1.14 1.149 3.323-.049 6.632.042 9.939-.049 1.328-.042 1.66.31 1.66 1.651-.049 13.884-.02 27.763-.06 41.665 0 1.166.33 1.419 1.449 1.4 4.602-.06 9.195-.06 13.802 0 1.135.021 1.453-.241 1.453-1.418-.048-11.307-.03-22.616-.03-33.926 0-2.616.05-5.249-.02-7.874-.03-1.09.188-1.621 1.406-1.475.856.107 1.75-.116 2.6.03 3.94.654 6.81-.86 9.503-3.741 3.853-4.163 8.172-7.912 12.425-11.944z" fill="#FCFCFD"/><path d="M79.212 232.663c3.009.567 5.73 1.177 8.511 1.572 8.142 1.144 16.289 1.265 24.477.535 16.672-1.44 32.59-5.837 47.877-12.514 26.049-11.37 48.495-27.57 66.042-50.147 11.167-14.346 18.97-30.316 22.495-48.246.914-4.605 1.4-9.265 1.684-13.942 0-.263.06-.512.123-1.105a120.416 120.416 0 014.781 13.491c3.547 12.16 5.089 24.563 4.177 37.198-1.581 21.907-9.577 41.323-23.528 58.183-17.337 20.933-39.437 34.31-65.965 40.065-18.446 4.014-36.735 3.142-54.644-3-13.407-4.579-25.195-11.913-35.59-21.52-.085-.084-.145-.217-.44-.57zM219.798 65.767c-1.824.128-3.526-.565-5.25-.881-10.78-1.91-21.58-1.91-32.422-.556-21.726 2.705-41.889 9.99-60.826 20.812C99.023 97.874 80.116 114.34 66.133 136.1c-8.324 12.94-13.928 26.972-16.333 42.19-.567 3.638-.902 7.296-1.067 10.975-.486.042-.477-.325-.559-.518-6.474-15.787-9.672-32.182-8.562-49.259 1.297-19.87 7.981-37.86 19.85-53.795 17.464-23.463 40.643-38.33 69.166-44.719 17.565-3.946 35.051-3.383 52.286 1.952 14.742 4.544 27.62 12.279 38.849 22.841h.035z" fill="#256BB1"/><path d="M226.102 119.207a492.946 492.946 0 00-4.276 4.033c-3.363 3.195-6.738 6.372-10.093 9.611-.61.577-1.214.821-2.047.821-9.444-.037-18.856 0-28.302-.053-1.124 0-1.45.255-1.45 1.42.061 9.517.061 19.028 0 28.54 0 1.165.306 1.449 1.45 1.416 4.976-.06 9.94 0 14.907-.02 2.735 0 4.195-1.459 4.216-4.124.019-2.786-1.419-4.223-4.256-4.244-3.851-.021-7.702-.042-11.574.02-1.021 0-1.417-.162-1.398-1.315.08-4 .06-8.003 0-12-.02-1.019.223-1.319 1.277-1.298 4.784.049 9.565.01 14.349.02 8.086.01 14.011 4.547 16.16 12.357 2.31 8.381-.465 17.437-6.86 22.22-2.563 1.936-5.43 2.959-8.703 2.959a4470.765 4470.765 0 00-33.509 0c-1.133.02-1.428-.305-1.419-1.45.042-14.378.042-28.769 0-43.157 0-.958.286-1.612 1.017-2.265 4.54-4.277 9.076-8.584 13.616-12.891.437-.426.851-.733 1.519-.733 14.937.021 29.893.021 44.827.021.121-.014.224.026.55.112zm-152.679 52.07a7450.215 7450.215 0 0015.056-14.38c.437-.416.902-.383 1.414-.383h10.072c.533 0 1.11.151 1.1-.76-.02-4.991-.01-9.984-.01-15.31-14.357 13.53-28.513 26.842-42.634 40.144-.516-.283-.298-.7-.298-1.023-.009-6.293 0-12.605-.03-18.888 0-.81.24-1.377.826-1.924a29399.02 29399.02 0 0041.204-38.939c.614-.567 1.207-.856 2.068-.847 4.367.042 8.735.042 13.102 0 .949-.009 1.247.224 1.247 1.212-.03 19.354-.03 38.716 0 58.09 0 1.075-.345 1.257-1.317 1.236a574.087 574.087 0 00-12.97 0c-.988.02-1.246-.263-1.206-1.214.076-1.844-.061-3.68.041-5.512.077-1.186-.24-1.54-1.479-1.52-8.107.06-16.197.02-24.283.02-.5-.002-.986-.002-1.903-.002z" fill="#C22429"/><path d="M217.935 106.588c-1.765-2.355-3.58-4.604-5.614-6.646-8.147-8.135-18.077-12.172-29.488-12.889-11.166-.704-21.926 1.545-32.486 4.92-15.603 4.98-30.128 12.327-44.305 20.415-.654.365-1.221 1.01-2.21.83 4.587-4.565 9.277-8.87 14.238-12.897 12.14-9.865 25.328-17.921 40.12-23.18 14.024-4.98 28.494-7.022 43.35-6.267 9.018.456 17.893 1.919 26.616 4.235.811.219.884.486.637 1.182-3.544 9.94-7.093 19.881-10.628 29.818-.049.14-.13.251-.23.48zM81.072 191.94c2.905 4.002 6.04 7.467 9.754 10.365 7.255 5.665 15.553 8.511 24.653 9.22 11.86.915 23.207-1.6 34.365-5.26 15.158-4.974 29.303-12.158 43.103-20.051.588-.344 1.155-.649 1.793-1.014.211.658-.214.812-.447 1.042-14.033 13.905-29.646 25.505-48.014 33.123a110.58 110.58 0 01-30.844 7.863c-15.037 1.62-29.81.081-44.39-3.668-.654-.17-1.182-.223-.826-1.195 3.618-10.079 7.19-20.142 10.853-30.425z" fill="#256BB1"/><path d="M175.944 119.219c-4.253 4.041-8.551 7.781-12.442 11.941-2.674 2.882-5.553 4.389-9.483 3.742-.852-.146-1.745.065-2.61-.03-1.22-.146-1.44.384-1.409 1.475.072 2.613.023 5.248.023 7.874 0 11.31-.011 22.619.03 33.926 0 1.167-.316 1.439-1.455 1.418-4.596-.06-9.189-.06-13.8 0-1.112.021-1.45-.223-1.45-1.4.04-13.902.01-27.77.061-41.665 0-1.342-.323-1.7-1.66-1.651-3.298.107-6.616 0-9.94.049-.902.011-1.16-.247-1.14-1.15.043-4.543.031-9.1 0-13.653 0-.748.157-1.04.973-1.04 17.928.022 35.863.022 53.798.022.1.004.16.044.504.142z" fill="#C22429"/><path d="M219.76 65.795c.03.03.04.07.05.1.009.021-.012.042-.012.06v-.188l-.038.028z" fill="#256BB1"/></g></svg>