<svg width="642" height="198" xmlns="http://www.w3.org/2000/svg"><g transform="translate(0 -1)" fill="none"><circle fill="#FFF" cx="161.106" cy="56.261" r="4.02"/><path d="M63.797 90.246l23.608-19.42c4.911-13.52 10.086-27.294 15.494-38.856 2.709 6.149 5.21 12.306 7.919 18.952 12.97-10.641 20.904-17.008 31.62-20.036-6.646-14.514-11.266-24.491-13.481-28.921h-52.37c-4.43 9.344-21.146 44.017-40.584 90.994h18.936c3.448-.007 6.4-.498 8.858-2.713zM.52 196.236h46.727l15.817-49.426H17.57C12.16 161.562 6.425 177.795.519 196.235zm140.947-46.55l16.557 46.55h46.187c-9.592-28.532-19.916-55.327-29.504-79.917-8.002 16.501-15.567 24.805-33.24 33.367zm21.425-28.456c14.59-23.56 19.684-60.984 19.684-60.984l-5.65-2.464c-.748-.238-.98-.98-.257-1.719l4.19-5.162c-2.706-5.162-12.05-13.519-25.833-13.519-8.17 0-15.311 2.183-21.731 6.372 0 0-9.345 6.345-22.95 18.104-15.666 13.55-37.005 34.314-56.233 60.896-.516.74.1 1.674.833 1.674h24.838c16.238 0 37.388-2.94 59.271-26.06.481-.487.904-.54 1.395-.302.489.25.565.795.317 1.28-3.436 8.368-12.051 25.322-27.79 35.408h21.15c13.8-.002 24.404-6.673 28.766-13.524zm-11.063-55.676c-3.362-3.357-3.362-8.79 0-12.139a8.56 8.56 0 0112.126 0c3.355 3.35 3.355 8.782 0 12.14-3.354 3.341-8.78 3.341-12.126 0z" fill="#E30009"/><path d="M137.134 103.418a106.326 106.326 0 003.309-5.355c-.489-.238-.911-.185-1.395.302-21.883 23.121-43.04 26.06-59.27 26.06h-24.84c-.734 0-1.35-.934-.833-1.673 19.22-26.582 40.56-47.34 56.233-60.896L68.714 96.648c-3.195 2.694-7.132 4.418-12.54 4.418H3.795c-1.472 0-.986 1.23-.74 1.964 3.688 11.32 13.518 21.395 30.733 21.395l-12.29 12.54c-.494.488-.494 1.726.741 1.726h46.714c33.785 0 54.55-14.673 68.182-35.273zm-14.56 51.514l14.755 41.309h10.82l-15.493-43.271a100.559 100.559 0 01-10.081 1.962zm41.38-95.828a4.023 4.023 0 11-5.69-5.691 4.023 4.023 0 015.69 0 8.56 8.56 0 00-12.126 0c-3.362 3.349-3.362 8.782 0 12.139 3.347 3.35 8.772 3.35 12.126 0 3.355-3.357 3.355-8.79 0-12.14a4.032 4.032 0 010 5.692zm-29.82 75.648h-21.157c-5.41 3.21-7.129 4.172-14.754 7.142-.547.197-.732.731-.494 1.463l18.899 52.878h10.813l-17.345-48.44c11.271 0 38.203-2.992 52.795-26.565-4.362 6.851-14.967 13.522-28.757 13.522zm63.927-83.853h-17.205l-4.19 5.162c-.74.731-.491 1.473.256 1.719l5.65 2.463 15.977-7.377c.998-.491.747-1.967-.488-1.967z" fill="#00985B"/><path d="M603.805 196.152H641.9V78.218h-38.094v43.253h-35.863V78.218h-38.345v117.934h38.345v-44.46h35.863zm-144.997-120.4c-38.086 0-58.96 23.354-58.96 65.853 0 39.82 14.724 57.015 43.233 57.015 17.458 0 29.486-5.898 36.119-15.476l1.99 13.023h31.197V83.13c-12.541-3.924-26.797-7.377-53.58-7.377zm15.25 84.289c-3.443 3.934-9.104 8.108-18.438 8.108-10.324 0-15.954-9.57-15.954-28.017 0-22.6 6.119-33.894 18.415-33.894 7.122 0 10.808.484 15.977 1.719v52.084zm-121.19 23.106l2.464 13.023h30.964V78.22h-38.344v81.823c-3.18 3.934-10.068 8.109-15.962 8.109-10.57 0-16.471-6.134-16.471-17.198V78.228h-38.091v81.83c-3.187 3.934-10.8 8.11-17.19 8.11-9.833 0-15.238-6.15-15.238-17.206V78.235h-38.101v77.897c0 28.5 12.288 42.511 38.101 42.511 18.673 0 29.486-6.881 38.084-15.977 5.9 10.564 16.716 15.977 32.432 15.977 18.694-.02 29.016-6.666 37.352-15.496" fill="#E30009"/></g></svg>