<svg id="Layer_1" data-name="Layer 1" xmlns="http://www.w3.org/2000/svg" viewBox="0 0 708.66 255.12"><defs><style>.cls-1{fill:#006341;}.cls-2{fill:#8fc85b;}.cls-3{fill:#fff;}</style></defs><title>ЛОГО Близенько</title><path class="cls-1" d="M551.77,74.44a2,2,0,0,1-1.93-1.93v-19l-10.69,19a3.84,3.84,0,0,1-3,1.93h-6.79a1.92,1.92,0,0,1-1.93-1.93V47a1.9,1.9,0,0,1,1.93-1.93H533A1.91,1.91,0,0,1,534.92,47V67.15L547.23,47A3.81,3.81,0,0,1,550,45.1h5.38A1.91,1.91,0,0,1,557.3,47V72.51a2,2,0,0,1-1.93,1.93ZM503.17,45.1A1.9,1.9,0,0,1,505.1,47V49a1.9,1.9,0,0,1-1.93,1.93H494V72.55a1.92,1.92,0,0,1-1.93,1.89h-3.85a1.92,1.92,0,0,1-1.93-1.89V50.88h-9.14A1.9,1.9,0,0,1,475.25,49V47a1.9,1.9,0,0,1,1.93-1.93Zm-77,29.34a2,2,0,0,1-1.93-2V47a2,2,0,0,1,1.93-2H430a2,2,0,0,1,1.92,2v9.8h4.41c2.38,0,4.1-1.21,5.74-4.15L445.26,47a3.47,3.47,0,0,1,2.94-2h4.73c1.05,0,1.26.84.63,2l-4.44,8c-1.05,1.89-2.43,3.86-5.28,4.53,2,.42,4.1,3,5.28,4.78l5.11,8.13c.67,1.09.38,1.93-.71,1.93h-4.7a4.24,4.24,0,0,1-3.14-1.93l-3.6-5.7c-1.56-2.47-3.11-4.19-5.74-4.19h-4.41v9.93A1.91,1.91,0,0,1,430,74.44Zm-47.36-6.16c1.13,0,2.22.37,3.44.37h.42c2.68,0,4.56-1.76,5.57-5.32h-1.76c-7.13,0-10.35-2.89-13-8.93L370.24,47c-.46-1.09.08-1.93,1.13-1.93h4.32a2.93,2.93,0,0,1,2.72,1.84l2.35,5.7c1.3,3.1,3.18,4.9,6.79,4.9h2.52L393.75,47a2.76,2.76,0,0,1,2.56-1.88h4.15a1.31,1.31,0,0,1,1.3,1.84L395.1,66.05c-1.72,5-5,8.39-12,8.39h-4.95a1.92,1.92,0,0,1-1.93-1.93V70.2a1.9,1.9,0,0,1,1.93-1.92ZM321.43,53.14c1.59-6.54,7.34-8,13.29-8h9.41a2,2,0,0,1,2.1,1.88l1.48,25.57a1.84,1.84,0,0,1-1.92,1.89H316a2,2,0,0,1-1.93-1.93v-2A1.92,1.92,0,0,1,316,68.65h1.59Zm4.07,15.51H340l-.66-17.77h-5.46a4.85,4.85,0,0,0-4.95,4Zm-48-24.18c10.47,0,16.47,4.4,16.47,15.3s-6,15.29-16.47,15.29S261,70.66,261,59.77s6-15.3,16.48-15.3m-8.77,15.3c0,6.28,2.48,9.76,8.77,9.76s8.76-3.48,8.76-9.76S283.76,50,277.48,50s-8.77,3.48-8.77,9.77M226.87,45.1c7.79,0,12.36,3.52,12.36,11.4s-4.57,11.4-12.36,11.4h-9.81v4.61a1.92,1.92,0,0,1-1.93,1.93h-3.86a2,2,0,0,1-1.93-1.93V47a1.89,1.89,0,0,1,1.89-1.93Zm-9.81,5.78V62.11h7.46c4,0,7-.83,7-5.61s-3-5.62-7-5.62ZM178.85,74.44a2,2,0,0,1-1.93-1.93V50.88H162V72.51A2,2,0,0,1,160,74.44h-3.86a1.92,1.92,0,0,1-1.92-1.93V47a1.88,1.88,0,0,1,1.88-1.93h26.58A1.92,1.92,0,0,1,184.64,47V72.51a2,2,0,0,1-2,1.93Z"/><path class="cls-2" d="M626.4,95.89c-19.8,0-29.7,9.9-29.71,61.06S606.6,218,626.4,218s29.7-9.9,29.7-61.05-9.9-61.06-29.7-61.06m0,107.26c-6.6,0-9.91-3.3-9.91-46.2s3.31-46.21,9.91-46.21,9.9,3.3,9.9,46.21-3.3,46.2-9.9,46.2m-30.79,9.9c1.65,1.65,1.65,3.3-1.65,3.3H579.1a9.89,9.89,0,0,1-9.89-9.9h0v-3.3c0-39.6-6.6-46.2-13.2-46.2a2.34,2.34,0,0,1-2.37-3.17l15.71-53.07a4.69,4.69,0,0,1,4.24-3.17h14.85a2,2,0,0,1,2,3l-19.55,44.95c8.91,1.24,17.36,13,18.08,52.13,0,5.16,0,8.81,0,8.81h0l6.6,6.6M541.16,97.54H526.3c-3.3,0-3.3,1.65-1.65,3.3l6.6,6.6V213.05a3.32,3.32,0,0,0,3.31,3.3h13.19a3.31,3.31,0,0,0,3.3-3.3V107.44h0a9.89,9.89,0,0,0-9.89-9.9m-232.4,26.4c0-19.8-8.25-28-24.76-28a23.83,23.83,0,0,0-13.65,4.68c-1.72-1.58-4-3.7-5-4.68-1.65-1.65-4.37-1.12-3.47,2.31.42,1.6,3.23,10.37,4,12.54,1.58,4.69,4.95,0,11.55,0,8.24,0,11.54,3.3,11.55,13.2,0,11.55-3.31,14.85-9.9,14.85a3.31,3.31,0,0,0-3.3,3.3v8.25a3.3,3.3,0,0,0,3.3,3.3h1.65c6.59,0,9.89,3.3,9.89,24.76h0c0,21.45-3.31,24.75-9.9,24.75H262.55c0,11.55,3.3,14.85,18.16,14.85,19.8,0,29.7-9.9,29.7-39.6,0-16.16-2.94-26.45-8.8-32.48q7.14-7.42,7.15-22M169.91,109.05a11.59,11.59,0,0,0-1.49-3.74c-1.88-4.16-6.45-7.77-10.66-7.77H139.61c-3.31,0-3.31,1.65-1.65,3.3,1.51,1.51,5.31,5.79,5.93,6.49l-25,105.81a2.5,2.5,0,0,0,2.54,3.21H138a3.84,3.84,0,0,0,3.71-3.28l11.82-94.56L164,213.07a3.79,3.79,0,0,0,3.67,3.28h16.5a2.73,2.73,0,0,0,2.77-3.26Zm75.3-11.51H230.36c-3.3,0-3.3,1.65-1.65,3.3l6.6,6.6v86.2c-4.54,4.93-9.58,9.51-12.63,9.51-5,0-7.17-3.3-7.17-24.75V153.65h0V107.44h0a9.9,9.9,0,0,0-9.9-9.9H190.76c-3.3,0-3.3,1.65-1.65,3.3l6.6,6.6v71c0,34.65,3.87,39.6,18.72,39.6,7.06,0,14.87-7.1,20.88-15.07v10.12a3.32,3.32,0,0,0,3.3,3.3h13.2a3.31,3.31,0,0,0,3.3-3.3V107.44h0a9.9,9.9,0,0,0-9.9-9.9M447.62,206.45h0v-99h0a9.9,9.9,0,0,0-9.9-9.9H422.86c-3.3,0-3.3,1.65-1.65,3.3l6.6,6.6v34.65H408V107.44h0a9.9,9.9,0,0,0-9.9-9.9H383.26c-3.3,0-3.3,1.65-1.65,3.3l6.6,6.6V213.05a3.31,3.31,0,0,0,3.3,3.3h13.2a3.31,3.31,0,0,0,3.3-3.3V157h19.8v49.5h0a9.9,9.9,0,0,0,9.9,9.9h14.86c3.3,0,3.3-1.65,1.65-3.3s-6.6-6.6-6.6-6.6M349.17,95.89c-19.8,0-29.7,9.9-29.7,39.6V178.4c0,29.7,9.9,39.6,29.7,39.6,16.5,0,19.8-3.3,19.8-14.85h-19.8c-6.6,0-9.9-3.3-9.9-24.75v-3.31h9.9c19.8,0,29.71-9.9,29.71-39.6s-9.91-39.6-29.71-39.6m0,64.36h-9.9V135.49c0-21.45,3.3-24.75,9.9-24.75s9.9,3.3,9.9,24.75-3.3,24.76-9.9,24.76m143-34.66h-9.9V107.44h0a9.9,9.9,0,0,0-9.9-9.9H457.52c-3.3,0-3.3,1.65-1.65,3.3l6.6,6.6v64.35h0c0,36.3,9.9,46.2,29.7,46.2s29.7-9.9,29.7-46.2-9.9-46.21-29.7-46.21m0,77.56c-6.6,0-9.9-3.3-9.9-31.35h0V140.44h9.9c6.6,0,9.9,3.3,9.9,31.36s-3.3,31.35-9.9,31.35M86.8,95.89C81,95.89,75.48,97,72,99.22l0,0c-3.3-3.3-1.65-9.9,4.55-11.55,1.67-.45,29.3-8.25,29.3-8.25a13,13,0,0,0,10.3-13.2V44.74c0-3.31-1.65-3.31-3.3-1.65-1.29,1.28-5.59,7.59-7.42,10.31L76.5,67.84C53.61,79.29,53.4,92.35,64.64,107c-5,8.84-7.54,24.13-7.54,49.91C57.1,208.1,67,218,86.8,218s29.7-9.9,29.7-61.05-9.9-61.06-29.7-61.06m0,107.26c-6.6,0-9.9-3.3-9.9-46.2s3.3-46.21,9.9-46.21S96.7,114,96.7,157s-3.3,46.2-9.9,46.2"/><path class="cls-1" d="M646.26,85.63C642,66.54,620.82,66.32,609.39,54.41a76.71,76.71,0,0,1-8.13-10.07c-1.14-2-2.91-1.89-2.91,1.41V67.2c0,8,4.67,15.71,10,19.08,16.3,10.28,20.7,25.27,10,34.17-.2,1-.33,1.88-.56,3.65,20.72-6.7,31.79-23.62,28.45-38.47"/><path class="cls-3" d="M602.09,54.81a69.28,69.28,0,0,0,3.16,7,38.67,38.67,0,0,0,4.91,7.31,38.64,38.64,0,0,0,7.16,6.34,83.23,83.23,0,0,1,8.36,6.22,23.4,23.4,0,0,1,3.54,4.14,30.07,30.07,0,0,1,2.54,4.66,25.18,25.18,0,0,1,2.11,10,22.19,22.19,0,0,1-1.94,9,19.2,19.2,0,0,1-4.55,6.3,22.39,22.39,0,0,0,3.54-6.7A22.72,22.72,0,0,0,632,100.5a25.21,25.21,0,0,0-2.37-9.09,31.08,31.08,0,0,0-2.44-4.25A22,22,0,0,0,624,83.48c-2.42-2.25-5.32-4.09-8-6.17a35.87,35.87,0,0,1-7.23-7,33.88,33.88,0,0,1-4.44-8,43,43,0,0,1-2.18-7.44"/></svg>