<svg width="670" height="127" xmlns="http://www.w3.org/2000/svg"><path d="M201.458 68.046c-3.308 4.128-7.8 6.556-13.692 7.388l5.806-47.294c4.062.696 7.286 2.272 9.61 4.7 2.716 2.818 4.09 7.206 4.09 13.046.008 9.884-1.948 17.334-5.814 22.16zM197.866.986H172.72l-1.158 9.354c-15.014.974-26.574 5.422-34.398 13.25-8.192 8.186-12.34 19.57-12.34 33.828 0 5.272.892 10.1 2.65 14.33a31.453 31.453 0 007.8 11.154c3.38 3.112 7.538 5.6 12.366 7.382 4.084 1.516 8.658 2.516 13.634 2.988l-1.162 9.822h25.144l1.156-9.728c6.858-.408 13.098-1.678 18.564-3.792 6.058-2.348 11.248-5.606 15.428-9.7 4.198-4.112 7.436-9.12 9.616-14.908 2.16-5.732 3.256-12.188 3.256-19.192 0-10.626-3.534-19.126-10.49-25.27-6.354-5.598-15.126-8.992-26.082-10.066l1.162-9.452zm-33.468 74.416c-4.182-.756-7.332-2.422-9.594-5.032-2.638-3.042-3.982-7.362-3.982-12.832 0-10.118 1.89-17.616 5.628-22.266 3.204-4.002 7.726-6.354 13.758-7.16l-5.81 47.29zm69.626 50.972l-1.012-19.04 2.258-.208c3.474-.324 6.494-.832 8.97-1.51 2.416-.66 4.532-1.514 6.298-2.502 1.696-.956 3.15-2.132 4.312-3.478.41-.468.798-.968 1.17-1.482h-4.396l-12.876-71.966h25.862l4.348 45.752 15.754-45.752h26.512l-29.362 69.766c-3.954 9.402-9.602 16.75-16.768 21.84-7.182 5.106-16.864 7.956-28.748 8.486l-2.322.094zm209.02-26.07c-4.562 0-8.43-1.178-11.496-3.514-2.05-1.568-3.626-3.68-4.712-6.33-2.36 2.638-4.902 4.768-7.608 6.356-3.94 2.324-7.982 3.488-12.024 3.488-5.55 0-10.026-1.758-13.312-5.232-3.23-3.434-4.88-8.684-4.88-15.616 0-1.066.048-2.206.134-3.406.096-1.192.224-2.406.406-3.636l6.49-46.226h25.026l-6.578 47.024c-.236 1.448-.358 2.636-.358 3.604 0 1.716.312 2.182.312 2.182.034.028.366.272 1.378.272.54 0 1.812-.272 4.11-2.104 1.878-1.478 3.878-3.912 5.908-7.244l6.178-43.732h25.028l-6.708 47.024c-.242 1.436-.366 2.58-.366 3.46 0 1.772.354 2.218.354 2.222.242.23.708.36 1.338.36.552 0 1.824-.27 4.136-2.042 1.874-1.448 3.812-3.812 5.76-7.042l6.3-43.982h25.018l-10.032 71.966h-22.044l.076-5.684c-1.874 1.86-3.876 3.374-5.958 4.554-3.856 2.184-7.844 3.278-11.876 3.278zm-88.278-35.922c-.918 3.636-2.08 6.774-3.462 9.336-1.308 2.442-2.77 4.304-4.324 5.536-1.378 1.098-2.658 1.65-3.792 1.65a9.741 9.741 0 01-4.306-.986c-1.114-.528-2.188-1.378-3.216-2.542l2.574-18.052c2.994-5.38 5.726-9.22 8.134-11.438 2.188-2.014 4.19-3.048 5.936-3.048.566 0 1.446.142 2.508 1.392.616.71 1.332 2.286 1.332 5.748.002 4.596-.464 8.768-1.384 12.404zm25.256-24.972c-1.014-3.508-2.48-6.434-4.38-8.706-1.92-2.312-4.246-4.042-6.908-5.166-2.61-1.082-5.488-1.636-8.584-1.636-4.468 0-8.992 1.366-13.44 4.07-2.474 1.514-4.814 3.448-6.998 5.774l.384-7.572H317.96l-14.126 100.388 25.356-2.664 3.958-28.542c4.436 3.286 9.544 4.936 15.23 4.936 4.468 0 8.796-1.242 12.824-3.692 3.922-2.398 7.462-5.786 10.514-10.082 3.006-4.248 5.412-9.406 7.172-15.334 1.744-5.89 2.636-12.48 2.636-19.606-.008-4.65-.508-8.762-1.502-12.168zM662.52 98.154h-25.032l6.584-46.386c.236-1.732.366-3.192.366-4.354 0-1.326-.148-1.92-.216-2.124-.11-.054-.258-.082-.466-.082-.36 0-1.738.216-4.44 3.022-2.186 2.264-4.652 6.056-7.344 11.302l-5.42 38.62h-24.898l6.456-46.38c.23-1.886.352-3.414.352-4.482 0-1.562-.216-2.042-.236-2.082.014.028-.142 0-.302 0-.366 0-1.744.216-4.45 3.022-2.184 2.264-4.7 6.146-7.462 11.552l-5.422 38.364h-24.904l10.032-71.974h22.168l-.456 7.464c2.172-2.408 4.342-4.346 6.512-5.8 3.926-2.61 8.202-3.934 12.708-3.934 4.238 0 7.93 1.204 10.962 3.604 2.038 1.616 3.59 3.834 4.618 6.638 2.626-2.942 5.328-5.234 8.052-6.822 3.9-2.272 7.998-3.434 12.216-3.434 4.906 0 9.058 1.588 12.322 4.71 3.252 3.102 4.922 7.958 4.982 14.44v.602a48.573 48.573 0 01-.404 5.57l-6.878 48.944zm-124.654-48.86c-.494 1.068-1.436 2.088-2.792 3.02-1.522 1.036-3.626 1.956-6.234 2.724-1.986.582-4.366 1.062-7.118 1.434 1.088-4.326 2.752-7.72 4.956-10.114 2.596-2.812 5.218-4.178 8.024-4.178 1.374 0 2.386.292 3.09.892.378.318.878.912.878 2.318-.016 1.422-.286 2.74-.804 3.904zm18.548-19.876c-4.626-3.658-11.336-5.516-19.952-5.516-6.042 0-11.652 1.122-16.642 3.306-5.016 2.196-9.376 5.308-12.964 9.248-3.576 3.928-6.368 8.666-8.328 14.088-1.936 5.388-2.922 11.364-2.922 17.772 0 10.308 2.766 18.31 8.222 23.774 5.46 5.458 13.54 8.228 24.024 8.228 4.718 0 9.484-.81 14.182-2.408 4.694-1.594 8.978-3.852 12.71-6.684l1.744-1.332-10.242-15.762-1.994 1.364c-3.002 2.054-5.626 3.448-7.8 4.138-2.164.674-4.502 1.02-6.958 1.02-2.536 0-4.522-.688-6.07-2.11-1.182-1.082-2.022-2.866-2.508-5.32 6.916-.704 12.952-1.786 17.968-3.206 5.7-1.622 10.424-3.664 14.022-6.07 3.736-2.488 6.488-5.408 8.194-8.666 1.688-3.238 2.552-6.774 2.552-10.526 0-6.386-2.44-11.544-7.238-15.338zM116.468 97.154L62.022 2.866a4.088 4.088 0 00-3.382-1.798 4.106 4.106 0 00-3.386 1.798L.812 97.156a4.062 4.062 0 00.146 3.828 4.095 4.095 0 003.238 2.048h108.89a4.11 4.11 0 003.242-2.048 4.082 4.082 0 00.14-3.83z" fill="#EC1D24"/></svg>