<svg width="588" height="228" xmlns="http://www.w3.org/2000/svg"><g fill="none"><path d="M11.096 96.445h3.42v-.05l-.092-41.677.025-1.023.041-1.014.095-.99.14-.997.173-.98.216-.965.238-.948.288-.948.338-.93.358-.915.413-.898.432-.881.485-.89.527-.856.554-.864.576-.84.632-.79.618-.765.657-.756.673-.715.707-.69.698-.665.748-.632.74-.615.804-.582.79-.565.795-.532.84-.508.867-.49.867-.457.895-.433.912-.404.673-.288.682-.266.673-.239.674-.21.679-.205.698-.178.698-.163.698-.144.699-.139.706-.091.724-.097.698-.067.723-.055.723-.05.699-.017.723-.008h91.318v125.159H78.095V49.25l-.025-.88-.072-.882-.169-.865-.288-.756-.438-.615-.648-.408-.893-.166-.983.142-.724.349-.485.54-.29.698-.142.798-.044.907v.956l.016.964V108.2l-.016 1.18-.05 1.18-.067 1.165-.122 1.172-.144 1.139-.194 1.147-.213 1.13-.266 1.14-.263 1.119-.341 1.106-.366 1.11-.382 1.084-.408 1.09-.462 1.08-.51 1.064-.53 1.067-.534 1.003-.552.99-.576.964-.607.964-.618.931-.632.915-.673.914-.68.881-.697.887-.751.873-.724.85-.765.832-.803.798-.79.798-.842.787-.84.757-.867.731-.868.735-.886.698-.91.67-.922.657-.934.638-.934.61-.98.598-.962.573-.99.538-.983.54-1.015.524-1.014.499-1.039.474-1.036.44-1.064.43-1.065.424-1.08.382-1.086.369-1.081.33-1.08.29-1.107.266-1.08.3-1.106.208-1.108.205-1.131.16-1.106.175-1.133.125-1.13.091-1.131.05-1.159.053-1.13.033H.7V96.46h10.4v-.016h-.005zm355.27-92.657l.698.158.698.172.698.177.699.178.698.207.682.214.698.23.665.235.25.106.232.11.807.424.764.416.749.446.723.477.698.474.698.512.682.521.649.535.645.552.635.576.59.59.607.613.599.64.548.643.546.681.549.699.052.06.05.075.549.81.53.814.517.818.466.814.399.837.416.843.382.845.35.84.315.861.283.862.24.867.209.868.216.867.183.884.141.884.108.876h33.763v125.014h-57.916V130.82l-.033.017-.02.016v.034h-.024l-.025.025-.723.734-.751.74-.749.731-.75.726-.77.707-.752.715-.762.698-.781.699-.879.806-.898.806-.914.823-.931.79-.915.798-.964.798-.931.765-.967.779-.964.75-.981.749-.99.723-1.014.715-.986.682-.998.673-1.047.657-1.031.623-.796.483-.823.457-.859.44-.831.416-.87.405-.873.374-.89.357-.886.241-.898.316-.915.266-.914.183-.906.191-.904.175-.939.125-.95.052-.956.025-1.685-.025-1.704-.075-1.713-.116-1.71-.224-1.68-.258-1.684-.366-1.665-.432-1.605-.532-1.577-.615-1.496-.732-1.446-.831-1.372-.967-1.272-1.098-1.189-1.214-1.122-1.33-.99-1.496-.382-.707-.366-.74-.357-.773-.34-.806-.317-.831-.274-.857-.266-.89-.241-.88-.241-.931-.216-.932-.192-.956-.19-.958-.167-.981-.15-.981-.15-.998-.116-.99-.133-1.002-.1-.998-.091-1.011-.075-.99-.083-.989-.066-.98-.05-.982-.05-.959-.017-.986-.025-.915-.025-.914-.016-.898v-.87l-.025-.856V28.088h32.698l.053-.505.072-.52.053-.522.064-.52.108-.535.074-.521.1-.527.097-.52.028-.137.025-.133.482-1.654.549-1.582.681-1.513.74-1.447.873-1.388.912-1.322 1.014-1.241 1.08-1.19 1.156-1.124 1.192-1.048 1.28-1.008 1.344-.956 1.38-.9 1.447-.84 1.468-.793 1.488-.732.2-.163.18-.177.183-.203.174-.213.192-.233.15-.213.168-.21.133-.198.599-.817.665-.707.779-.576.825-.463.887-.34.965-.203.958-.067 1.012.059 1.056.113.98-.122.965.059.967.232.878.374.882.527.798.634.748.751.682.832.016.06.05.059v.008l.02.009v.016l.033.009v.016l.027.025zm-2.242 59.01l-.266.067-.233.033-.252.033-.25.017-.257.008-.266-.008-.258-.017-.269-.025-.482.108-.516.067-.482.033h-.493l-.49-.05-.483-.083-.482-.116-.482-.166-.083.016-.092.017-.074.016-.08.017-.084.017-.083.016-.089.017-.075.008v41.303l.025 1.031.053.956.141.84.266.715.433.593.582.42.814.278 1.064.08 1.015-.091.798-.283.573-.465.4-.599.24-.723.15-.856.053-.915.016-.989v-41.32h-.002zM225.833 135.83v17.272H176.42l-1.779-.025-1.737-.152-1.682-.188-1.688-.286-1.61-.382-1.59-.49-1.538-.541-1.524-.632-1.463-.734-1.422-.832-1.38-.895-1.327-.997-1.28-1.098-1.234-1.2-1.18-1.288-1.134-1.372-.961-1.335-.91-1.355-.817-1.397-.773-1.413-.698-1.433-.607-1.48-.554-1.493-.51-1.505-.407-1.54-.383-1.555-.29-1.569-.264-1.596-.169-1.596-.147-1.63-.075-1.612-.025-1.638v-.961l.025-.333v-.324l.025-.316v-.313l.025-.333.025-.349.025-.35.017-.348.025-.35.03-.349.042-.349.025-.349.05-.349.024-.241.048-.241.26-1.048.266-1.083.26-1.064.292-1.048.288-1.047.29-1.064.317-1.048.315-1.047.314-1.048.316-1.047.34-1.048.341-1.03.358-1.04.357-1.022.358-1.04.382-1.022.382-1.014.383-1.03.388-1.015.407-1.014.407-1.015.436-.997.407-1.014.432-.998.46-.998.432-.997.463-.998.463-.989.482-.99.488-.98.485-.981.485-.981.526-1.014.535-1.015.538-1.014.526-1.014.535-1.014.527-1.014.554-1.006.551-1.006.554-.998.552-.997.554-.998.576-.998.557-.989.577-.99.576-.98.577-.99.582-.98.6-.973.577-.981.607-.981.601-.964.607-.981.602-.965.6-.964.624-.964.63-.965.606-.964.63-.956.631-.956.62-.948.633-.947.656-.948.79-1.206.818-1.205.845-1.189.84-1.172.867-1.164.867-1.172.887-1.139.92-1.139.867-1.03.868-1.048.845-1.056.867-1.047.84-1.048.845-1.047.867-1.056.843-1.048 1.371-1.698h54.685l48.225 124.876h-61.673l-6.775-17.339zm-14.82-39.103l-18.655-43.66-.316 1.171-.288 1.131-.266 1.106-.214 1.072-.171 1.097-.12 1.114-.074 1.148-.042 1.197.017 1.58.025 1.612.074 1.646.097 1.646.145 1.68.146 1.662.211 1.68.236 1.67.315 1.655.341 1.654.383 1.63.463 1.604.507 1.58.582 1.529.629 1.48.698 1.446.535.99.554.939.582.881.626.865.649.798.681.731.748.69.74.624.826.548.84.5.884.44.964.349.984.274 1.064.208 1.108.125 1.156.05.316-.017h.29l.289-.016h.29l.29-.034.29-.016.291-.034.28-.025zm254.599-21.445l-.981.632-.99.582-1.014.54-1.003.482-1.064.44-1.064.4-1.092.35-1.103.298-1.105.258-1.14.225-1.127.2-1.13.132-1.165.125-1.155.075-1.172.05-1.18.016h-14.862V28.23h22.357l1.433.03 1.413.059 1.397.091 1.352.147 1.372.177 1.338.222 1.322.258 1.305.29 1.297.322 1.272.377 1.255.4 1.222.431 1.236.483 1.208.515 1.214.532 1.18.574 1.164.615 1.13.64 1.14.682 1.103.715 1.114.731 1.055.79 1.09.806 1.039.832 1.03.88 1.015.882 1.006.931.994.964.956.965.968 1.014.939 1.047.906 1.056.804.965.765.956.764.997.732.981.748 1.006.698 1.023.726 1.014.671 1.03.682 1.048.648 1.048.638 1.064.634 1.064.624 1.08.598 1.081.574 1.09.573 1.097 4.78 9.208 25.328-44.221h53.48v124.873H532.04V89.586l-20.514 33.226h-5.842l-11.247-17.084v47.38H433.27v-35.844l.064-1.812.191-1.788.366-1.754.457-1.729.574-1.676.673-1.666.77-1.613.874-1.587.94-1.555 1.013-1.521 1.081-1.463 1.106-1.439 1.164-1.388 1.213-1.347 1.23-1.305 1.228-1.239.549-.523.582-.524.548-.507.574-.524.554-.507.566-.515.582-.508.548-.523.798-.715.823-.715.79-.715.798-.715.831-.698.815-.715.831-.699.79-.698.798-.682.804-.681.798-.682.79-.682.798-.681.773-.69.798-.69.795-.682.233-.233.269-.216.266-.233.233-.232.266-.217.269-.232.266-.233.263-.233z" fill="#76B728"/><path d="M11.096 96.464h3.42v-.05l-.092-41.685c0-5.492 1.66-10.53 4.916-14.945 3.2-4.314 7.332-7.52 12.24-9.604 3.522-1.582 7.332-2.211 11.159-2.211h91.318v125.15h-55.96V50.065c0-2.003.148-5.354-2.526-5.354-3.085 0-2.655 2.777-2.655 5.354v58.16c0 6.31-1.424 12.342-4.334 17.948a48.112 48.112 0 01-11.087 14.14 52.937 52.937 0 01-15.407 9.367c-5.687 2.261-11.62 3.442-17.738 3.442H.68V96.467h10.416v-.003zm214.737 39.366v17.272H176.42c-9.549 0-17.696-3.491-23.576-11.114-5.42-7.025-7.593-15.369-7.593-24.148 0-.864.028-1.729.078-2.577.05-.93.119-1.879.235-2.81l.025-.232.047-.233c2.672-11.398 6.773-22.36 12.052-32.793 5.514-10.896 11.802-21.404 18.605-31.527 2.12-3.217 4.381-6.368 6.842-9.377 2.314-2.76 4.58-5.55 6.844-8.372l1.367-1.704h54.687l48.225 124.882h-61.673l-6.753-17.267zm-14.82-39.103l-18.655-43.66c-.887 3.2-1.488 5.76-1.488 9.016 0 8.372.934 18.229 4.866 25.785 2.752 5.354 6.578 9.01 12.946 9.01.785 0 1.555-.05 2.33-.15zM336.6 28.087a23.93 23.93 0 011.339-4.156c1.28-3.037 3.106-5.761 5.484-8.058 2.327-2.284 5.035-4.038 8.044-5.312 3.126-1.339 6.432-1.99 9.826-1.99 3.4 0 6.698.651 9.807 1.998 3.01 1.302 5.695 3.12 7.962 5.464 2.269 2.314 4.023 4.988 5.32 7.94a25.954 25.954 0 011.347 4.123h36.307v125.023H364.12v-22.293c-.033.033-.075.05-.1.08-1.945 1.962-3.957 3.916-6.027 5.744-4.747 4.332-9.932 8.63-15.452 11.93-4.253 2.56-9.16 4.539-14.212 4.539-8.946 0-19.035-1.954-23.89-10.325-4.34-7.349-4.722-20.864-4.722-29.182V28.088H336.6zm20.922 30.5v45.542c0 2.89.183 4.927 3.375 4.927 3.1 0 3.226-2.211 3.226-4.927V58.703c-.948.108-1.887.158-2.827.158a27.79 27.79 0 01-3.774-.275zm108.089 16.712c-5.113 3.483-11.229 4.788-17.472 4.788h-14.878V28.23h22.374c15.28 0 27.66 6.925 37.448 18.478 4.237 5.07 7.854 10.674 10.896 16.532l4.772 9.217 25.336-44.227h53.482v124.873h-55.524V89.597l-20.515 33.226h-5.833l-11.256-17.084v47.38h-61.174v-35.844c0-9.743 6.315-18.32 12.949-24.884 1.496-1.389 3.043-2.727 4.522-4.09 2.129-1.937 4.307-3.808 6.468-5.687a445.936 445.936 0 006.332-5.47c.676-.612 1.374-1.227 2.073-1.845z" fill="#FFEC00"/><path d="M82.642 148.563V50.065c0-6.609-2.355-9.906-7.09-9.906-3.013 0-4.964.848-5.856 2.54-.887 1.705-1.352 4.157-1.352 7.366v58.16c0 5.661-1.275 10.945-3.833 15.853a43.09 43.09 0 01-10.023 12.8c-4.173 3.65-8.842 6.5-14.105 8.579-5.223 2.062-10.58 3.11-16.05 3.11H5.216v-47.564H15.7c24.275 0 29.765 32.865 8.632 42.459 36.052-3.406 26.777-52.925-5.373-52.925v-35.8c0-4.53 1.355-8.612 4.027-12.237 2.696-3.641 6.17-6.351 10.419-8.144 2.721-1.23 5.83-1.829 9.327-1.829H129.5v116.04H82.642v-.004zm160.28-115.778l44.73 115.762h-51.938l-14.437-36.79v36.79h-44.856c-8.51 0-15.155-3.11-19.957-9.344-4.434-5.753-6.648-12.87-6.648-21.363 0-.665.017-1.443.07-2.344.05-.89.091-1.73.185-2.46 2.552-10.874 6.46-21.454 11.694-31.788 5.224-10.325 11.345-20.68 18.317-31.06 2.17-3.293 4.367-6.294 6.579-8.976a785.762 785.762 0 006.87-8.43h49.39v.003zM186.33 58.412v3.674c0 11.702 1.779 20.997 5.376 27.872 3.757 7.653 9.427 11.478 16.964 11.478 2.843 0 5.712-.524 8.632-1.572l-25.04-58.575c-1.88 2.45-3.854 8.153-5.932 17.123zm166.636 2.54v43.166c0 6.31 2.66 9.485 7.928 9.485 5.18 0 7.782-3.175 7.782-9.485V60.953c5.67-1.793 10.247-5.005 13.791-9.624 3.539-4.622 5.301-9.86 5.301-15.71v-2.976h29.717V148.55H368.68v-28.878c-.18.18-.98 1.023-2.41 2.483a470.93 470.93 0 01-5.446 5.512c-2.22 2.22-4.162 4.081-5.874 5.586-5.479 5.005-10.39 8.804-14.723 11.387-4.337 2.61-8.302 3.907-11.877 3.907-10.164 0-16.823-2.694-19.957-8.064-2.719-4.639-4.099-13.598-4.099-26.89V32.626h29.29v2.984c0 5.844 1.88 11.146 5.579 15.85 3.732 4.728 8.338 7.896 13.805 9.492zm8.347-47.83c-2.83 0-5.52.545-8.047 1.623-2.561 1.08-4.789 2.541-6.657 4.387-1.903 1.828-3.367 4.034-4.444 6.578-1.098 2.547-1.638 5.237-1.638 8.064 0 2.835.537 5.5 1.638 7.995 1.08 2.494 2.543 4.672 4.444 6.517 1.887 1.846 4.099 3.3 6.657 4.39 2.527 1.08 5.22 1.612 8.047 1.612 2.84 0 5.492-.532 7.994-1.612 2.503-1.09 4.675-2.544 6.52-4.39 1.827-1.845 3.293-4.023 4.37-6.517 1.098-2.511 1.647-5.16 1.647-7.995s-.546-5.498-1.646-7.984c-1.081-2.505-2.544-4.7-4.37-6.578-1.846-1.89-4.016-3.375-6.52-4.456-2.509-1.089-5.155-1.635-7.995-1.635zm221.695 135.441h-46.413v-75.01L509 118.264h-.85l-18.27-27.738v58.037H437.8v-31.288c0-6.79 3.88-14.005 11.62-21.645.93-.848 2.41-2.17 4.389-3.965a305.945 305.945 0 016.357-5.595 460.554 460.554 0 006.368-5.512c1.995-1.737 3.441-3.084 4.38-4.032 7.749-7.465 11.62-14.481 11.62-21.088 0-8.562-11.472-13.85-18.386-15.645-3.126-.807-5.953-1.206-8.513-1.206 2.045.433 28.728 13.615 9.36 31.419-4.09 3.74-9.756 5.52-16.84 5.52H437.81V32.785h17.845c13.1 0 24.436 5.617 33.98 16.848 3.848 4.605 7.298 9.857 10.308 15.7l8.227 15.851h.85l27.737-48.408h46.274v115.787h-.022z" fill="#76B728"/><path d="M366.365 3.788a39.24 39.24 0 015.537 1.582l.25.092.232.119c4.237 2.128 7.623 5.043 10.505 8.798l.053.061.05.075c6.052 8.53 6.825 18.175 3.625 28.049-1.378 3.965-3.592 7.432-6.465 10.508a32.243 32.243 0 01-5.753 4.736l-2.677 2.194c-1.926 1.538-4.173 2.411-6.565 2.428-1.03.499-2.028.598-3.109.482-1.297.332-2.627.283-3.871-.2-.241.05-.493.1-.734.142-2.353.29-4.62-.424-6.565-1.738l-.15-.116-.152-.125a17.908 17.908 0 00-2.918-1.928l-.175-.092-4.605-2.957-.283-.232c-9.424-8.497-11.871-19.417-9.577-31.727l.033-.138.028-.117c2.211-9.03 8.96-14.941 17.106-18.776.49-.375 1.04-1.137 1.38-1.616 1.469-2.33 3.974-3.475 6.698-3.126l1.056.12c2.66-.616 5.24.953 6.9 3.291l.016.048.05.058c.033.025.05.06.08.105z" fill="#FFEC00"/><path d="M364.065 52.465l-1.992.346a.412.412 0 00.017-.141c-.097-.46-.527-.546-.862-.74l.288-.554c1.735-.02 2.943-1.156 4.09-2.148 1.239-1.072.917-1.815-.726-2.067-.654-.102-1.178-1.13-1.54-.748-1.076 1.133-1.28-.122-1.763-.482-.449-.338-.856-.638-1.424-.823-.61-.2-1.619-.987-1.566-1.095.585-1.186-.443-.648-.798-.798h-.568c-.23-.122-.283-.332-.288-.562.432-.447.077-.508-.286-.563-.094 0-.188-.003-.288-.003-.812-.596-1.555-1.291-2.031-2.15-.654-1.183-2.004-1.735-2.558-3.023-.357-.826-.266-1.718-.673-2.547-.277-.56-.956-.684-1.042-1.394-.21-1.762.116-3.522-.183-5.301-.164-.964.887-1.97.596-3.131-.025-.089.13-.241.232-.338.835-.782 1.042-2.131 2.353-2.486.518-.141.521-.513.596-1.025.133-.937.1-1.862.144-2.79 1.289-.652 1.674-1.952 2.292-3.088 1.543-.163 2.912-1.233 4.56-.853 1.098.95 2.395.388 3.598.402.335.002.892-.352.942-.92.055-.635-.546-.51-.865-.721-.124-.083-.147-.316-.213-.48 1.28-.193 2.333.904 3.627.621l.327.319c0 .402.059.76.582.787-.618.854-1.496 1.095-2.508 1.133-.731.028-1.424.04-2.189.305-2.136.743-4.026 2.123-6.29 2.453-.942.138-1.38.598-1.535 1.352-.1.485-.438.828-.546 1.228-.286 1.064-1.776 1.224-1.77 2.408.002.961-.663 1.515-1.367 1.734-.873.275-.915.773-.945 1.469-.044 1.056.175 2.081.097 3.167-.141 1.932-.715 4.223 1.884 5.301.241.1.325.347.302.59-.097 1.137.82 1.852 1.197 2.791.189.471.594.773 1.1.252h.571c.059.43-.171 1.015.544 1.103 1.457.178 2.194 1.25 2.826 2.336.288.496.593.881 1.106.967 2.38.388 4.766-.468 7.18.009.595.116 1.058-.904 1.804-.998 1.039-.133 1.948-.427 2.31-1.604.32 1.682.458 3.161-1.03 4.453-.696.604-1.513 1.54-1.003 2.749-.075.163-.114.365-.236.482-1.552 1.493-3.732 2.161-5.154 3.854-.266.322-1.006.25-.926.962z" fill="#42A933"/><path d="M370.364 14.537c.867.07.685 1.192 1.43 1.386 1.79 1.926 3.06 4.19 4.29 6.473v1.133l-.003.003c-.981.194-.676 1.117-.732 1.616-.158 1.452-.438 3.491.707 4.173 1.796 1.075 1.302 2.41.964 3.539-.363 1.213.405.662.776.792-.055.881.139 1.776-.158 2.646-.451 1.336-.878 2.68-1.025 4.09l-.535.017c.003-.407.008-.817-.57-.845.002-.094 0-.186 0-.28-.065-.776.168-1.58-.195-2.33-.163-.33-.496-.895-.748-.627-.853.915-2.23.314-2.96 1.009-.997.948-2.097.812-3.242.818.967-1.004 1.228-2.503 2.694-3.229.718-.354 1.13-1.324 2.175-1.3.419.009.521-.301.557-.67.238-2.391.712-4.764.571-7.183-.022-.354.155-.892-.291-.992-.959-.21-1.469-1.022-2.125-1.552-1.048-.845-2.062-1.837-2.719-3.073h3.356c-.388-.859-.812-1.524-.227-2.236.39-.471-.078-.468-.338-.643-.981-.651-1.768-1.438-1.652-2.735z" fill="#62B22D"/><path d="M370.364 14.537c-.116 1.3.67 2.084 1.649 2.738.26.175.729.172.338.643-.585.712-.16 1.377.227 2.236h-3.356c-.163-.978-.933-1.058-1.712-1.125.091-.79-.175-1.197-1.073-1.136-.875.058-1.762.014-2.643.014-.68.083-.751.615-.856 1.125-.732.088-1.585-.294-2.162.352-.474.526-.923.9-1.674.784-.23-.036-.443.042-.631.233-1.389 1.416-2.522 3.031-3.733 4.586-.285.363-.355.731-.377 1.161-.06 1.178.25 2.386-.504 3.51-.247.367-.128.999.1 1.492 1.138 2.463 2.524 4.736 4.888 6.276.474.308.723.724.662 1.297-.85-.701-1.868-.56-2.857-.562h-.57c-.098-1.713-.821-3.464-2.06-4.276-1.033-.68-1.1-1.341-1.39-2.206-.328-.984-.084-1.9-.029-2.865.092-1.566 1.444-2.702 1.311-4.295-.008-.095.158-.25.275-.3.814-.36 1.039-1.164 1.493-1.81.82-1.174 1.58-2.562 2.968-3.064 1.344-.485 2.533-1.25 3.774-1.87 1.812-.907 3.373-1.056 5.099-.031.748.443 1.422.078 1.86-.518.265-.358.9-.978-.161-1.267l-.003-.56c.366-.01.562-.19.57-.56.12-.013.239-.027.361-.043a.262.262 0 01.216.041zm-.163 3.195c-.233 0-.372.108-.363.324.013.374.232.599.6.64.19.023.405-.052.375-.288-.047-.349-.319-.537-.612-.676z" fill="#54AF2F"/><path d="M376.613 40.389c.147-1.41.574-2.755 1.025-4.09.294-.87.103-1.766.158-2.647-.02-2.045.286-4.154-.643-6.069-.632-1.305-.52-2.754-1.072-4.048l.003-.003c.304-.033.523-.155.543-.496.025-.388-.147-.604-.543-.637-1.23-2.286-2.497-4.55-4.29-6.474.679-.404 1.053.02 1.402.505 1.275 1.768 2.88 3.328 3.688 5.392 1.563 3.99 2.655 8.028 1.757 12.4-.474 2.315-.806 4.637-2 6.73-.011-.192-.02-.378-.028-.563z" fill="#91BE1B"/><path d="M340.062 24.61c.203-1.926 1.339-3.436 2.317-5.018l.56-.003c.451.352.105.7-.08.95-.68.904-.843 1.91-.777 2.988l-.565 1.682c-1.374 4.342-.787 8.648.277 12.94-.197.003-.396.009-.59.012-1.632-.96-1.427-2.713-1.624-4.149-.432-3.131.189-6.27.482-9.402z" fill="#54AF2F"/><path d="M342.939 19.589l-.56.003c.937-2.195 2.865-3.525 4.6-4.997 1.097-.934 2.466-1.521 3.813-2.067 1.604-.651 2.613-1.973 3.713-3.165.471-.51.881-.93 1.574-1.036l3.406.02.285.024c.103.08.205.161.308.239l.005.005.289.272c.928 2.159 3.098 2.208 4.932 2.849.845.293 1.846.285 2.433 1.125-1.294.282-2.347-.815-3.627-.621-.269-.94-1.261-.3-1.743-.776l-.042-.039c-.1-.222-.294-.25-.51-.238-.593-.435-1.635.385-1.906-.388-.322-.928-.915-.751-1.544-.779.25-.598.083-1.155-.584-1.078-.787.089-1.99-.75-2.303.768-1.5.51-2.267 1.884-3.414 2.813-1.308.731-2.899.914-4.015 2.014-1.295.53-1.735 1.815-2.539 2.78-.787-.012-1.2.451-1.446 1.113-.577.197-.965.569-1.125 1.159z" fill="#75B725"/><path d="M349.481 49.752c-.086-.042-.174-.08-.263-.12-.915-.858-1.688-1.875-2.863-2.435-.728-1.316-2.153-2.062-2.868-3.389.034-.38-.163-.565-.532-.596l-.016-.546c.002-.939.002-1.881.005-2.823.757.573.674 1.565 1.159 2.266.834 1.211 1.11 2.88 2.832 3.364v.003c-.056.513.169.904.551 1.228 1.059.898 2.114 1.798 3.173 2.699-.416.041-.895-.125-1.178.349z" fill="#42A933"/><path d="M340.062 24.61c-.293 3.131-.914 6.271-.485 9.408.197 1.432-.008 3.19 1.624 4.148-.003.978-.066 1.968.602 2.807l.058 1.347-.028.022c-1.064-1.009-1.305-2.413-1.74-3.696-1.486-4.376-1.264-8.84-.563-13.318.056-.366.147-.627.532-.718zm24.003 27.855c-.08-.712.66-.64.932-.962 1.424-1.693 3.605-2.36 5.154-3.854.122-.117.16-.322.235-.482.36-.02.72-.036 1.078-.056l.089.094c-.867 1.513-2.563 2.068-3.835 3.112-1.067.884-2.115 1.97-3.653 2.148z" fill="#75B725"/><path d="M376.613 40.389c.011.185.02.37.028.56-1.336 2.369-2.688 4.727-5.085 6.26 0 0-.089-.095-.086-.095.82-1.194 1.585-2.425 2.685-3.414.363-.327.867-.646.77-1.239-.133-.787.255-1.402.588-2.045.188-.003.38-.005.565-.01l.535-.017z" fill="#75B725"/><path d="M343.485 43.808c.715 1.327 2.139 2.07 2.868 3.386-.006.21-.04.405-.253.519-1.537-.92-2.549-2.256-3.175-3.9l.036-.1c.174.031.352.062.524.095z" fill="#91BE1B"/><path d="M346.103 47.71c.214-.111.247-.308.252-.518 1.175.562 1.948 1.576 2.863 2.435-1.35-.147-2.156-1.155-3.115-1.917z" fill="#75B725"/><path d="M352.094 51.653c-.576-.934-1.914-.776-2.502-1.693.443.005.89.011 1.333.014.277.85 1.743.57 1.693 1.729l-.524-.05zM370.15 14.49l-.36.044c-.382-.188-.762-.374-1.141-.562-.524-.028-.582-.388-.582-.787.887.133 1.613.52 2.084 1.305z" fill="#62B22D"/><path d="M342.936 42.664l.017.546c.002.169.008.335.01.504l-.035.1c-.718-.239-.76-.96-1.098-1.475l.028-.022c.172.017.34.036.513.056.119.227.332.274.565.29z" fill="#75B725"/><path d="M359.488 8.35c-1.134-.006-2.27-.015-3.406-.02 1.139-.424 2.275-.43 3.406.02z" fill="#C8D523"/><path d="M350.925 49.974c-.443-.003-.89-.009-1.333-.014a.245.245 0 01-.11-.208c.285-.474.761-.305 1.177-.346.091 0 .18.005.274.01-.005.184-.005.372-.008.558z" fill="#54AF2F"/><path d="M352.094 51.653l.524.05.333.501-.07.08c-.374-.08-.806-.082-.787-.631z" fill="#C8D523"/><path d="M378.974 46.089c-.017.221-.092.41-.308.515-.014-.241.009-.46.308-.515z" fill="#A9C812"/><path d="M360.372 8.89a15.32 15.32 0 00-.289-.272c.1.092.194.183.289.272zm-.292-.277c-.102-.08-.204-.161-.307-.239.103.078.205.158.308.239z" fill="#C8D523"/><path d="M352.95 52.202c-.11-.167-.221-.336-.332-.502.05-1.158-1.419-.876-1.693-1.729.003-.186.003-.374.005-.56.46 0 .923 0 1.383.003.144.826.973.948 1.483 1.397.2.321.532.271.842.29.319.425 1.38.12 1.128 1.109l-.247.252c-.953.854-1.687-.396-2.568-.26z" fill="#42A933"/><path d="M361.513 52.836c-1.538.469-3.059.225-4.575-.11.394-.474 1.08 0 1.48-.447.726-.002 1.452-.005 2.178-.01.083.542.551.479.917.567z" fill="#62B22D"/><path d="M358.418 52.28c-.402.445-1.09-.028-1.48.445-.515.133-.992.078-1.419-.26l.247-.252 2.652.066zm3.095.556c-.368-.088-.837-.025-.917-.568.244-.058.499-.088.635-.338.332.194.762.28.861.74l-.579.166zm-9.443-40.313c1.147-.926 1.914-2.303 3.416-2.813.291.23.823.377.313.884-.776.089-.52.682-.57 1.125-.095.091-.192.186-.289.277-.385.25-.97.48-.69 1.028.308.613 1.009.316 1.552.369.61-.156.981-.549 1.158-1.131.186.03.435-.005.546.1.945.89 1.774.781 2.564-.36.695-.086 1.349.094 2.003.288-.15.632.58 2.078-1.18 1.227-.006-.002-.161.289-.244.441-1.652-.38-3.02.69-4.562.853-1.593-.005-2.84.53-3.5 2.073-.121.286-.418.493-.581.77-.69 1.181-2.262 1.913-1.923 3.622a25.8 25.8 0 01-.289.283c-.163.078-.393.11-.476.238-1.347 2.012-2.217 4.312-3.841 6.163-.327.377-.094.585.333.624 1.02.091 1.252.773 1.183 1.607-.058.668.368.635.8.651 0 .189.003.374.003.563-.604.077-.518.338-.266.75.308.508.674 1.076.422 1.683-.25.598-.009 1.003.36 1.371.837.834.984 1.851.909 2.946-.111.515.318 1.341-.31 1.49-.66.156-.757-.645-.91-1.182a.636.636 0 00-.39-.369c-1.458-.346-2.361-1.35-3.204-2.48-.318-.424-.75-.346-.89.28-.168.76-.143 1.566-.576 2.261h-.573c.089-1.748-.898-3.32-.687-5.14.26-2.242-.286-4.553.557-6.762.255-.673-.103-.95-.726-1.039l.565-1.682c.482-.25.726-.623.89-1.158.29-.95.734-1.854 1.11-2.777.095 0 .189 0 .286.003.114.701.468 1.056 1.158.62 1.098-.69 2.356-1.197 2.855-2.568.202-.557.501-.682.967-.033.34.479 1.213.548 1.236-.236.05-1.563 1.152-2.084 2.241-2.713.333-.191.92-.055.943-.673.022-.687-.635-.582-.995-.807-.286-.185-.566-.34-.699-.667zm-5.243 8.576c0-.305-.206-.369-.458-.369-.185 0-.393.017-.435.239-.058.28.136.432.372.48.263.052.42-.117.52-.35z" fill="#328C2C"/><path d="M342.947 38.155c.43-.693.405-1.502.574-2.261.138-.626.57-.704.89-.28.844 1.13 1.745 2.134 3.202 2.48a.636.636 0 01.391.369c.153.537.25 1.338.91 1.183.63-.15.199-.976.31-1.49 1.127.994 1.427 2.493 2.286 3.651-.02 1.161.033 2.278 1.74 1.818.518-.138.654.521 1.114.432.288.095.57.189.856.286.466 1.336 2.14 1.86 2.306 3.467.058.568.202.84-.458.642-.942-.277-1.097.427-1.191.96-.12.675.25 1.155 1.047 1.124.156.796 1.103.779 1.444 1.38.563.053 1.048-.108 1.427-.535.574-.008 1.147-.648 1.724-.002-.1.183-.194.368-.291.554-.136.25-.39.28-.635.338-.726.003-1.452.006-2.178.011l-2.652-.066c.252-.99-.809-.685-1.128-1.109 1.095-1.241-.036-1.643-.83-2.233-1.561-1.15-3.706-.915-5.23-2.24-.474-.41-.779-1.23-1.646-1.158v-.003c.017-.382-.003-.748-.355-1.005-.983-.724-1.319-1.88-1.967-2.821-.649-.94-.604-2.242-1.652-2.94 0-.186-.005-.369-.008-.552z" fill="#2B7623"/><path d="M351.512 41.81c-.861-1.158-1.158-2.657-2.286-3.652.075-1.095-.072-2.115-.909-2.946-.368-.368-.61-.773-.36-1.372.252-.606-.114-1.174-.421-1.682-.252-.412-.338-.676.266-.75 1.377-.23 1.374.939 1.36 1.615-.033 1.923.657 3.719 1.824 4.966 1.153 1.225 1.41 3.386 3.552 3.677.111.014.244.172.289.288.418 1.153.975.696 1.543.139.097 0 .191 0 .288.003.006.23.056.44.286.562.005.23.058.44.288.563.041.205.039.482.346.415.1-.022.15-.271.222-.418.355.15 1.383-.388.798.798-.053.108.959.895 1.566 1.094.568.186.975.485 1.424.823.482.36.687 1.616 1.762.483.363-.383.884.645 1.541.748 1.643.252 1.965.995.726 2.067-1.147.992-2.355 2.128-4.09 2.148-.574-.646-1.147-.006-1.72.002-.059-.579-.477-.61-.915-.545-.699.102-.46.665-.513 1.08-.34-.601-1.291-.584-1.444-1.38 1.012-.52 2.082-.942 2.968-1.685.635-.529.615-1.593-.086-1.582-1.13.014-1.463-.748-2.028-1.377-.682-.762-1.483-1.386-2.558-1.546a77.472 77.472 0 00-.856-.286c-.654-2.25-.654-2.25-2.863-2.25z" fill="#36992F"/><path d="M375.51 40.413c-.333.643-.72 1.259-.587 2.046.097.593-.408.911-.77 1.238-1.098.99-1.866 2.223-2.686 3.414-.36.017-.72.036-1.08.056-.51-1.209.307-2.142 1.002-2.75 1.488-1.29 1.35-2.77 1.031-4.452-.363 1.177-1.272 1.471-2.31 1.604-.749.094-1.212 1.114-1.805.998-2.413-.477-4.797.38-7.18-.009-.515-.083-.817-.468-1.105-.967-.632-1.086-1.367-2.158-2.827-2.336-.715-.088-.488-.673-.543-1.103.99.003 2.009-.138 2.857.563-.133 1.48.751 1.79 1.998 1.687.288.322.57-.091.859-.002.75.03 1.49.05 2.247.194 2.076.39 4.093-.003 5.772-1.242 2.137-1.577 3.31-1.682 5.124-.075 0 .095.003.186 0 .28 0 .286.003.571.003.856zm-6.861-26.444l1.141.563c-.008.365-.205.545-.57.56-.33.066-.751-.17-.99.28.239.445.66.213.992.282 1.062.288.424.909.161 1.266-.438.596-1.111.959-1.86.518-1.726-1.025-3.286-.875-5.098.03-1.242.622-2.43 1.386-3.774 1.871-1.389.502-2.148 1.89-2.968 3.065-.455.646-.679 1.45-1.494 1.81-.116.052-.282.205-.274.299.136 1.593-1.217 2.73-1.31 4.295-.059.967-.3 1.882.027 2.865.288.865.357 1.53 1.391 2.206 1.239.812 1.962 2.564 2.059 4.276-.51.521-.912.219-1.1-.252-.377-.94-1.294-1.654-1.197-2.79.022-.242-.061-.491-.302-.59-2.6-1.079-2.023-3.37-1.885-5.302.078-1.086-.141-2.111-.097-3.167.03-.693.07-1.195.945-1.469.704-.222 1.37-.776 1.366-1.735-.005-1.183 1.486-1.344 1.771-2.408.108-.399.446-.742.546-1.227.155-.751.593-1.214 1.535-1.353 2.261-.332 4.154-1.712 6.29-2.452.765-.266 1.458-.277 2.19-.305 1.006-.041 1.887-.282 2.505-1.136z" fill="#4BAD30"/><path d="M356.367 42.087c-.568.557-1.122 1.014-1.543-.138-.044-.12-.175-.275-.288-.289-2.142-.29-2.4-2.452-3.553-3.677-1.166-1.244-1.856-3.04-1.823-4.966.014-.676.016-1.845-1.36-1.615 0-.189-.004-.374-.004-.563.887-1.014.322-1.881-.33-2.688-.468-.576-.656-.773.325-1.02 1.99-.504 1.97-.609 1.554-2.568-.038-.175-.08-.48-.005-.521 1.194-.654.499-1.627.457-2.486.094-.094.191-.188.288-.282 1.954-.521 2.392-.926 2.547-2.857.086-1.095.704-.521 1.167-.521-.045.928-.012 1.854-.145 2.79-.072.513-.077.884-.595 1.025-1.311.355-1.519 1.705-2.353 2.486-.103.094-.258.25-.233.338.291 1.161-.756 2.17-.596 3.132.3 1.781-.027 3.538.183 5.3.086.71.765.835 1.042 1.394.408.832.316 1.721.674 2.547.554 1.286 1.903 1.84 2.557 3.023.48.865 1.222 1.563 2.034 2.156z" fill="#3CA132"/><path d="M353.796 17.901c-.463 0-1.08-.573-1.167.521-.155 1.932-.593 2.336-2.546 2.857-.339-1.71 1.233-2.438 1.923-3.622.163-.277.46-.485.582-.77.656-1.544 1.906-2.078 3.5-2.073-.616 1.136-1.004 2.436-2.292 3.087zm6.855-3.941c.084-.154.239-.443.244-.44 1.76.85 1.031-.598 1.18-1.227.325-.197.286-.521.295-.826.482.476 1.474-.164 1.743.776.066.163.088.396.213.479.316.213.917.086.864.72-.05.569-.606.923-.942.92-1.202-.013-2.502.55-3.597-.401z" fill="#36992F"/><path d="M356.938 42.655c-.23-.122-.28-.332-.285-.562.363.055.717.113.285.562zm.856.56c-.072.147-.121.396-.221.418-.308.067-.305-.213-.347-.415.189-.003.377-.003.568-.003z" fill="#3CA132"/><path d="M362.938 19.026c.102-.51.174-1.042.856-1.125.072.513-.172 1.086.244 1.585 1.08-1.15 2.355-.16 3.472-.463-.183 1.486.925 1.067 1.712 1.126.657 1.235 1.674 2.23 2.719 3.073.654.526 1.166 1.338 2.125 1.551.446.1.272.638.291.993.142 2.421-.332 4.79-.57 7.182-.04.366-.14.68-.558.67-1.044-.021-1.457.946-2.175 1.3-1.463.724-1.726 2.223-2.693 3.229-.095 0-.189-.003-.283-.006-.554-.7-.86-1.754-2.15-1.549.679 1.483.618 1.55-1.28 1.555.058-.81.797-1.788-.569-2.248-.002-.188-.008-.38-.01-.57 1.767-.524 3.097-2.162 5.148-1.965.476-.236 1.036-.488 1.48-.16 1.36.994 1.3-.159 1.355-.885.069-.876.014-1.762.296-2.616-.064-.349-.975-.172-.535-.834.984-2.389-.335-3.935-2.02-5.35-.765-1.614-2.222-2.104-3.854-2.218-2.422-.169-4.792-.086-6.407 2.162-.419-.336-.255-1.397-1.156-.77-.08-.915.624-1.178 1.278-1.383 1.05-.325 1.674-1.541 3.02-1.311.319.055.225-.618.264-.973z" fill="#75B725"/><path d="M368.078 38.144c.091.003.186.006.283.006 1.144-.006 2.244.13 3.242-.818.731-.693 2.109-.094 2.96-1.009.251-.268.584.294.747.627.363.75.13 1.554.194 2.33-1.812-1.607-2.984-1.502-5.123.075-1.68 1.239-3.697 1.632-5.772 1.241-.754-.144-1.494-.163-2.248-.194-.058-.703.344-.87.97-.85.806.027 1.624-.067 2.42.025 1.207.138 1.98-.275 2.327-1.433z" fill="#54AF2F"/><path d="M376.078 23.532c.552 1.297.44 2.746 1.072 4.049.929 1.917.627 4.023.643 6.068-.374-.13-1.139.419-.776-.792.339-1.128.835-2.464-.964-3.539-1.144-.684-.864-2.721-.706-4.173.055-.496-.247-1.419.731-1.613zm.002-1.136c.4.033.569.25.544.637-.02.341-.238.463-.543.496v-1.133z" fill="#75B725"/><path d="M375.51 40.413c0-.285-.003-.57-.006-.856.58.028.574.438.571.845-.185.006-.377.009-.565.011z" fill="#54AF2F"/><path d="M368.078 38.144c-.346 1.156-1.12 1.571-2.328 1.433-.795-.092-1.613.002-2.419-.025-.626-.022-1.025.144-.97.85-.288-.088-.57.325-.859.003-.166-1.139-1.122-1.366-1.998-1.687.058-.574-.188-.987-.662-1.297-2.364-1.538-3.75-3.81-4.888-6.277-.227-.493-.347-1.125-.1-1.49.75-1.123.44-2.331.504-3.512.022-.43.092-.798.377-1.16 1.211-1.558 2.345-3.17 3.733-4.587.185-.191.402-.269.632-.233.75.117 1.202-.255 1.673-.784.577-.645 1.433-.266 2.162-.352-.039.352.055 1.028-.258.976-1.347-.23-1.97.986-3.02 1.31-.654.205-1.358.469-1.28 1.383l-.009.829c-.2.349-.335.715-.29 1.128-1.27-.278-1.988.67-1.797 1.482.183.768-.083 1.452.097 2.137.208.787-.986 1.139-.678 1.662.615 1.042.867 2.212 1.424 3.262.28.532.77.454 1.241.457.006.371.011.743.014 1.111.042.388-.191.945.36 1.067 1.513.335 2.824 1.388 4.476 1.206.097.845 1.213.418 1.432 1.11 1.899-.002 1.96-.071 1.28-1.554 1.295-.202 1.597.85 2.151 1.552zm-.571-19.118c-1.117.302-2.391-.687-3.472.463-.413-.499-.172-1.072-.244-1.585.881 0 1.768.044 2.644-.014.898-.06 1.166.347 1.072 1.136zm1.715 1.125c-.787-.058-1.898.36-1.712-1.125.779.067 1.549.147 1.712 1.125z" fill="#62B22D"/><path d="M370.2 17.732c.292.139.566.327.613.676.033.236-.183.313-.374.289-.369-.045-.588-.27-.601-.64-.009-.217.13-.325.363-.325z" fill="#4BAD30"/><path d="M369.222 15.651c-.332-.07-.753.166-.992-.283.239-.446.66-.21.99-.28l.002.563z" fill="#62B22D"/><path d="M341.517 25.211c.624.092.981.369.726 1.04-.842 2.208-.296 4.52-.557 6.76-.21 1.822.776 3.393.687 5.141-.19 0-.382 0-.57.003l-.012-.003c-1.064-4.295-1.651-8.598-.274-12.94zm2.566-5.622c-.38.923-.82 1.829-1.111 2.776-.166.535-.407.912-.89 1.159-.063-1.078.097-2.084.776-2.987.186-.25.532-.599.08-.951.161-.587.55-.962 1.129-1.156l.016 1.159z" fill="#3CA132"/><path d="M342.936 42.664c-.233-.017-.446-.064-.565-.291-.122-.494.343-1.22-.568-1.403-.668-.836-.605-1.828-.602-2.807.194-.002.394-.008.59-.01l.009.002c.06.77-.366 1.865 1.141 1.685-.002.942-.002 1.884-.005 2.824z" fill="#4BAD30"/><path d="M352.07 12.523c.132.327.41.482.7.659.363.225 1.017.12.995.806-.022.618-.61.48-.942.674-1.089.629-2.192 1.153-2.242 2.713-.025.787-.895.717-1.236.235-.465-.648-.762-.523-.967.033-.501 1.372-1.76 1.88-2.854 2.57-.69.434-1.045.082-1.158-.621.798-.003.388-.89.856-1.137.047 0 .094.006.141 0 1.04-.144 2.924-2.893 2.691-3.923 1.117-1.095 2.707-1.278 4.015-2.01z" fill="#2B7623"/><path d="M356.963 12.262c-.177.582-.549.978-1.158 1.13.01-.642-1.153-.581-.862-1.393.094-.092.191-.186.288-.277.751-.103.513-.688.571-1.125.51-.507-.022-.654-.313-.884.31-1.519 1.513-.68 2.3-.768.668-.075.834.48.585 1.078-.011.781.861.887 1.141 1.444-.402.402-.776.252-1.028-.13-.463-.707-.986-.46-1.54-.175-.211.089-.197.177 0 .266l.016.834z" fill="#42A933"/><path d="M348.054 14.537c.233 1.031-1.651 3.78-2.69 3.924-.048.006-.095 0-.142 0-.044-.416.11-.781.291-1.142.806-.967 1.247-2.253 2.541-2.782z" fill="#328C2C"/><path d="M359.515 11.467c-.282-.557-1.152-.663-1.141-1.444.629.028 1.219-.152 1.543.779.272.773 1.314-.047 1.907.388.171.077.338.158.51.238l.041.039c-.011.305.03.629-.294.826-.65-.197-1.308-.375-2.003-.289-.022-.352-.194-.546-.563-.537z" fill="#4BAD30"/><path d="M345.516 17.317c-.18.36-.336.726-.291 1.141-.468.244-.058 1.13-.856 1.136-.095-.002-.189-.002-.286-.002l-.016-1.159c.249-.665.662-1.128 1.449-1.116zm16.812-5.889c-.172-.08-.338-.16-.51-.238.216-.014.41.013.51.238z" fill="#36992F"/><path d="M346.935 45.476c.867-.072 1.172.748 1.646 1.159 1.524 1.327 3.669 1.089 5.229 2.239.795.587 1.923.989.831 2.233-.308-.02-.64.03-.842-.29.47-1.461-.538-1.395-1.483-1.397l-1.383-.003a8.723 8.723 0 00-.274-.011c-1.059-.9-2.114-1.802-3.173-2.7-.385-.326-.607-.717-.551-1.23zm-3.975-6.772c1.048.698 1.001 2 1.652 2.94.649.942.981 2.098 1.968 2.82.352.261.371.627.355 1.007-1.721-.485-2.001-2.153-2.832-3.364-.485-.701-.402-1.694-1.159-2.267.003-.377.011-.757.017-1.136z" fill="#328C2C"/><path d="M342.964 43.711c-.003-.169-.009-.335-.011-.504.37.03.565.216.532.596-.172-.028-.35-.059-.521-.092zm-1.161-2.741c.911.183.446.91.568 1.403a29.766 29.766 0 01-.513-.056c-.017-.449-.036-.898-.055-1.347z" fill="#62B22D"/><path d="M352.313 49.417c.945.003 1.954-.064 1.483 1.396-.51-.449-1.339-.57-1.483-1.396z" fill="#2B7623"/><path d="M349.797 21.559c.042.86.737 1.832-.457 2.486-.075.041-.033.346.005.52.416 1.96.435 2.065-1.554 2.57-.981.246-.793.443-.324 1.02.65.806 1.216 1.673.33 2.687-.433-.014-.86.017-.801-.651.069-.834-.164-1.516-1.184-1.607-.426-.04-.66-.247-.332-.624 1.624-1.848 2.491-4.15 3.84-6.163.084-.127.314-.16.477-.238z" fill="#36992F"/><path d="M359.515 11.467c.372-.009.54.183.557.535-.79 1.141-1.618 1.25-2.563.36-.11-.105-.36-.07-.546-.1l-.016-.834v-.266c.551-.283 1.077-.53 1.54.175.25.382.626.532 1.028.13z" fill="#2B7623"/><path d="M342.96 38.704c-.005.38-.013.756-.019 1.136-1.507.18-1.08-.915-1.141-1.685l.57-.003h.574l.017.552z" fill="#42A933"/><path d="M354.943 11.999c-.291.812.87.75.862 1.394-.54-.053-1.242.244-1.552-.369-.277-.546.308-.776.69-1.025z" fill="#36992F"/><path d="M346.827 21.102c-.097.23-.258.402-.521.349-.236-.047-.43-.2-.372-.48.045-.221.25-.238.435-.238.25-.003.458.061.458.369z" fill="#2B7623"/><path d="M355.802 10.594c-.058.44.177 1.025-.57 1.125.046-.443-.206-1.036.57-1.125z" fill="#36992F"/><path d="M355.223 44.343c1.075.16 1.876.784 2.558 1.546.565.632.897 1.391 2.028 1.377.701-.008.723 1.053.086 1.583-.887.742-1.956 1.164-2.968 1.684-.798.031-1.167-.448-1.047-1.125.091-.529.249-1.233 1.191-.958.66.194.518-.075.457-.643-.166-1.602-1.84-2.126-2.305-3.464zm-3.711-2.533c2.209 0 2.209 0 2.855 2.25-.46.092-.599-.57-1.114-.432-1.707.46-1.76-.657-1.74-1.818z" fill="#328C2C"/><path d="M358.374 51.916c.052-.415-.186-.978.512-1.08.438-.064.857-.034.915.545-.383.427-.865.588-1.427.535z" fill="#3CA132"/><path d="M359.51 38.718c.873.324 1.831.548 1.998 1.687-1.25.103-2.131-.21-1.998-1.687z" fill="#54AF2F"/><path d="M371.816 28.872c-.438.662.471.485.535.834-.421.003-.848 0-1.27.008-1.529.025-1.734.289-1.08 1.633.197.404-.163.448-.2.678-.08.49-.748.743-.584 1.342-2.05-.194-3.384 1.44-5.149 1.964-1.147-.13-2.12-1.305-3.414-.557-.501.014-.427-.257-.288-.562.28-.432.321-.912.288-1.405.158-.67.978-.388 1.355-.862-.468-.457-1.014.058-1.313-.12-1.048-.63-.887.098-.9.685l-1.4-.002c-.092-1.22-.76-2.392-.31-3.655.332-.203.246-.538.265-.84.555.21.646-.928 1.092-.485.624.626.596.247.632-.247.078-1.114-.95-2.618 1.111-3.034.036-.006.006-.2.058-.26 1.026-1.187 2.525-1.47 3.908-1.968.914-.33.46.745.917.9.133.045.288.214.371.178 1.208-.488 2.234.352 3.362.421.188.651-.521 1.613.537 1.937 1 .308 1.109 1.009 1.178 1.835.041.534-.236 1.139.3 1.582zm-4.871-3.927c.74-.075.734.707 1.102 1.023 1.247-1.056.405-1.405-.49-1.851-.405-.2-.751-.505-1.078-.07-.332.447.283.582.44.876-.038.044-.071.086-.107.13.047-.036.091-.072.133-.108zm-6.025 4.728c.413 1.466 2.109 1.624 2.716 2.893.183.385.707.24.66-.178-.136-1.26.953-.529 1.39-.853.508-.377.671.277.812.64.433 1.103 1.283.62 1.755.26.504-.385.019-.967-.383-1.277-.723-.56-.543-.906.1-1.388.953-.707.909-1.907 1.189-2.902.152-.543-.4-.501-.701-.124-.222.277-.483.59-.801.316-.962-.82-2.084-1.475-2.824-2.528-.166-.235.405-1.028-.53-.673-.578.222-1.327.654-1.108 1.197.236.593-.144.99-.083 1.339.2 1.158-1.269.956-1.305 1.787-.028.734-.518 1.164-.887 1.49zm1.41-3.278c.159-.895-.177-1.325-.911-1.42-.26-.032-.468.142-.36.439.213.582.058 1.432.87 1.607.587.125.36-.477.402-.626z" fill="#A9C812"/><path d="M369.799 23.521c-1.128-.067-2.153-.909-3.362-.421-.083.033-.238-.133-.37-.178-.458-.155-.004-1.23-.918-.9-1.383.499-2.882.781-3.907 1.967-.053.061-.022.252-.059.26-2.061.416-1.033 1.921-1.11 3.035-.037.493-.009.873-.633.247-.443-.446-.534.695-1.091.485.002-.557.005-1.114.005-1.671a307.29 307.29 0 00-.277-1.69c.41-.031.748-.172.812-.621.053-.372-.219-.466-.52-.51l.007-.829c.904-.626.74.438 1.159.77 1.612-2.247 3.985-2.327 6.406-2.16 1.635.113 3.09.603 3.858 2.216zm-.579 9.846c-.164-.599.504-.851.584-1.342.04-.23.4-.271.2-.678-.654-1.344-.45-1.608 1.08-1.633.422-.005.849-.005 1.27-.008-.286.854-.227 1.737-.297 2.616-.058.726.006 1.879-1.355.884-.446-.327-1.009-.075-1.482.16zm2.596-4.495c-.535-.443-.258-1.048-.302-1.58-.066-.823-.174-1.526-1.178-1.834-1.06-.324-.349-1.286-.537-1.937 1.682 1.416 3.004 2.962 2.017 5.35zm-11.162 5.905c1.297-.748 2.267.424 3.414.557.003.189.009.38.011.57h-.002a18.88 18.88 0 01-.286.28c-.188.1-.382.198-.574.297-.363-.324-.654-.875-1.213-.759-.868.183-1.114-.335-1.35-.945z" fill="#91BE1B"/><path d="M363.22 36.481c.191-.1.385-.196.574-.296.094-.094.188-.186.285-.28h.003c1.366.46.63 1.438.568 2.247-.219-.692-1.333-.266-1.433-1.11 0-.19.003-.375.003-.56z" fill="#76B730"/><path d="M358.08 24.652c.091.565.183 1.127.277 1.69-.319.055-.776-.136-.726.499.058.695-.064 1.419.454 2.012-.448 1.263.22 2.435.31 3.655l-.03 1.144c-.47-.003-.964.075-1.241-.457-.554-1.05-.81-2.217-1.424-3.262-.308-.523.886-.875.678-1.662-.18-.685.086-1.37-.097-2.137-.188-.812.53-1.757 1.799-1.482zm5.14 11.829c0 .186-.003.372-.003.557-1.654.183-2.962-.87-4.475-1.205-.551-.122-.319-.682-.36-1.067.795.283 1.241-.651 1.987-.549-.142.305-.214.577.288.563.236.61.482 1.128 1.352.945.554-.122.848.43 1.211.756z" fill="#75B725"/><path d="M360.366 34.215c-.745-.103-1.192.83-1.987.548-.003-.371-.008-.742-.014-1.111l.03-1.144 1.4.002c.288.1.571.2.86.297.032.499-.01.975-.289 1.408z" fill="#91BE1B"/><path d="M358.374 23.524c.299.041.57.138.52.51-.063.449-.401.59-.811.62-.047-.415.088-.781.29-1.13z" fill="#75B725"/><path d="M356.947 11.162v.266c-.197-.089-.211-.177 0-.266z" fill="#36992F"/><path d="M360.92 29.673c.369-.327.86-.757.887-1.488.036-.829 1.505-.63 1.305-1.788-.058-.349.319-.748.083-1.338-.216-.543.53-.978 1.109-1.197.934-.355.366.435.529.673.74 1.053 1.862 1.707 2.824 2.527.318.275.579-.038.8-.315.303-.377.854-.419.702.124-.28.995-.236 2.195-1.19 2.902-.642.482-.822.828-.099 1.388.402.31.884.892.383 1.277-.472.36-1.322.843-1.755-.26-.14-.363-.304-1.017-.811-.64-.438.324-1.527-.405-1.392.853.048.421-.476.563-.66.178-.606-1.272-2.3-1.43-2.715-2.896z" fill="#C8D523"/><path d="M366.922 24.923c-.16-.294-.773-.432-.44-.876.324-.435.673-.13 1.078.07.892.446 1.737.795.49 1.85-.371-.312-.366-1.097-1.103-1.022l-.025-.022zm-4.592 1.472c-.044.15.184.75-.401.626-.812-.175-.657-1.025-.87-1.607-.108-.297.1-.471.36-.438.734.094 1.07.524.912 1.419zm-1.676 6.415l-.859-.297c.014-.587-.147-1.313.9-.684.297.177.846-.338 1.314.119-.38.474-1.2.191-1.355.862z" fill="#C8D523"/><path d="M358.085 28.853c-.52-.59-.399-1.317-.454-2.012-.053-.635.405-.444.726-.5 0 .558-.003 1.115-.006 1.672-.019.302.067.637-.266.84z" fill="#89BB49"/><path d="M366.945 24.945c-.045.036-.086.072-.13.108a4.08 4.08 0 01.107-.13l.023.022z" fill="#C8D523"/><path d="M364.077 35.905l-.286.28c.097-.094.191-.189.286-.28z" fill="#75B725"/><path fill="#76B728" d="M.898 174.165h586.45v53.297H.898z"/><path d="M109.93 181.91h12.658l5.248 15.593 5.135-15.592h11.857l-12.367 29.207c-1.011 2.364-1.904 4.123-2.655 5.254-.765 1.18-1.879 2.111-3.353 2.89-1.488.726-3.541 1.114-6.118 1.114-1.372 0-3.736-.2-7.092-.582V212c1.974.183 3.42.274 4.315.274 2.702 0 4.342-.986 4.922-3.017l-12.55-27.345zm39.016 0h11.644v13.21h12.767v-13.21h11.71v37.829h-11.71v-15.327H160.59v15.327h-11.644V181.91zm79.99 0v37.829h-10.96v-20.772l-14.027 20.772h-11.084V181.91h11.029v20.913l14.121-20.913h10.921zm7.867 0h21.856c3.636 0 6.434.907 8.382 2.686 1.949 1.837 2.913 4.048 2.913 6.725 0 2.245-.674 4.173-2.07 5.77-.945 1.064-2.292 1.895-4.08 2.524 2.7.648 4.7 1.765 5.978 3.359 1.275 1.596 1.934 3.616 1.934 6.002 0 1.945-.463 3.74-1.38 5.268-.911 1.596-2.17 2.829-3.738 3.74-.99.55-2.46.982-4.434 1.23-2.63.333-4.359.533-5.229.533h-20.143v-37.836h.011zm11.755 14.848h5.082c1.83 0 3.087-.316 3.81-.931.724-.657 1.081-1.549 1.081-2.727 0-1.103-.357-1.978-1.08-2.599-.724-.607-1.951-.914-3.736-.914h-5.157v7.171zm0 14.845h5.95c2 0 3.42-.36 4.248-1.048.84-.734 1.252-1.696 1.252-2.901 0-1.114-.41-2.02-1.224-2.705-.826-.662-2.25-1.011-4.29-1.011h-5.927v7.665h-.009zm29.213-29.692h31.21v8.097h-19.5v6.019h18.08v7.711h-18.08v7.424h20.083v8.58H277.77V181.91zm38.033 0h19.4c4.215 0 7.391.997 9.486 3.026 2.112 1.995 3.159 4.871 3.159 8.579 0 3.832-1.156 6.85-3.442 8.975-2.294 2.162-5.802 3.226-10.505 3.226h-6.384v14.024h-11.714v-37.83zm11.714 16.166h2.876c2.258 0 3.849-.404 4.772-1.18.914-.774 1.36-1.78 1.36-3.018 0-1.18-.399-2.195-1.205-3.01-.79-.814-2.286-1.255-4.478-1.255h-3.325v8.463zm51.567 6.193l10.222 3.093c-.681 2.843-1.765 5.246-3.259 7.183a14.104 14.104 0 01-5.503 4.361c-2.195.99-4.952 1.472-8.355 1.472-4.098 0-7.448-.599-10.081-1.788-2.596-1.208-4.838-3.333-6.717-6.318-1.879-2.981-2.843-6.841-2.843-11.544 0-6.235 1.665-11.054 4.988-14.404 3.325-3.35 8.014-5.035 14.116-5.035 4.755 0 8.493.956 11.203 2.893 2.727 1.934 4.755 4.86 6.083 8.867l-10.29 2.295c-.365-1.14-.73-1.998-1.147-2.51a6.795 6.795 0 00-2.374-2.046c-.968-.482-1.998-.715-3.176-.715-2.66 0-4.686 1.048-6.108 3.176-1.055 1.593-1.587 4.057-1.587 7.413 0 4.2.615 7.066 1.903 8.645 1.272 1.538 3.054 2.311 5.379 2.311 2.211 0 3.904-.634 5.052-1.89 1.155-1.252 1.97-3.09 2.494-5.459zm39.1 9.228h-13.232l-1.887 6.243h-11.894l14.196-37.828h12.767l14.143 37.828h-12.226l-1.867-6.243zm-2.461-8.197l-4.14-13.59-4.12 13.59h8.26zm20.146-23.39h15.38l5.849 23.008 5.878-23.008h15.332v37.828h-9.54v-28.853l-7.364 28.853h-8.626l-7.346-28.853v28.853h-9.56V181.91h-.003z" fill="#FFEC00"/></g></svg>