<svg width="669" height="180" xmlns="http://www.w3.org/2000/svg"><g fill="none"><path fill="#004281" d="M.362 0h667.953v179.043H.362z"/><path d="M115.025 144.61l23.063-69.205v69.205h34.43V34.43h-46.482l-22.381 55.09-22.381-55.09H34.792v110.18H69.23V75.405l23.226 69.205h22.568zm370.01-42.835c10.748-.862 21.454-8.173 21.454-20.18V54.398c-1.25-12.408-10.556-19.116-21.61-20.004h-88.558v110.214h34.432v-42.835h13.7l22.373 42.835h39.604l-26.65-42.835h5.255v.003zM475.513 73.2c0 2.391-.605 4.475-4.882 4.475h-39.878V56.057h39.932c4.857 0 4.828 3.174 4.828 5.165V73.2zM275.808 56.127V34.43h-89.514v110.18l90.71-.026.025-21.669h-56.22l.005-23.591h54.991v-21.64h-54.988V56.126h54.991zm43.044 0h-32.708V34.43h99.85v21.692h-32.712v88.488h-34.43V56.127zm296.11-21.697h-73.184c-10.988.888-20.266 6.468-21.505 18.938v71.286c1.239 12.467 10.52 19.077 21.505 19.959h73.183c10.974-.885 20.267-7.498 21.52-19.96V53.369c-1.253-12.47-10.546-18.042-21.52-18.938zm-12.912 83.564c-.155 1.238-.633 4.5-4.87 4.921h-37.295c-4.251-.42-5.023-3.686-5.179-4.921v-57.57c.15-1.238.741-3.875 4.979-4.297h37.497c4.252.422 4.715 3.062 4.871 4.297v57.57h-.003z" fill="#004281"/><path fill="#223D7B" d="M.362 0h667.953v179.043H.362z"/><path d="M115.025 144.61l23.063-69.205v69.205h34.43V34.43h-46.482l-22.381 55.09-22.381-55.09H34.792v110.18H69.23V75.405l23.226 69.205h22.568zm370.01-42.835c10.748-.862 21.454-8.173 21.454-20.18V54.398c-1.25-12.408-10.556-19.116-21.61-20.004h-88.558v110.214h34.432v-42.835h13.7l22.373 42.835h39.604l-26.65-42.835h5.255v.003zM475.513 73.2c0 2.391-.605 4.475-4.882 4.475h-39.878V56.057h39.932c4.857 0 4.828 3.174 4.828 5.165V73.2zM275.808 56.127V34.43h-89.514v110.18l90.71-.026.025-21.669h-56.22l.005-23.591h54.991v-21.64h-54.988V56.126h54.991zm43.044 0h-32.708V34.43h99.85v21.692h-32.712v88.488h-34.43V56.127zm296.11-21.697h-73.184c-10.988.888-20.266 6.468-21.505 18.938v71.286c1.239 12.467 10.52 19.077 21.505 19.959h73.183c10.974-.885 20.267-7.498 21.52-19.96V53.369c-1.253-12.47-10.546-18.042-21.52-18.938zm-12.912 83.564c-.155 1.238-.633 4.5-4.87 4.921h-37.295c-4.251-.42-5.023-3.686-5.179-4.921v-57.57c.15-1.238.741-3.875 4.979-4.297h37.497c4.252.422 4.715 3.062 4.871 4.297v57.57h-.003z" fill="#FFE600"/></g></svg>