<svg width="669" height="149" xmlns="http://www.w3.org/2000/svg"><g fill="none"><path d="M12.693 148.889h643.92c6.799 0 12.317-6.94 12.317-15.524V29.845c0-8.581-5.518-15.534-12.318-15.534H12.692C5.892 14.31.38 21.264.38 29.845v103.52c.01 8.583 5.514 15.524 12.313 15.524z" fill="#73243D"/><path d="M145.01 118.85c0 3.194-2.717 4.85-8.047 4.85-5.318 0-8.04-1.656-8.04-4.85v-61.3c0-6.975 2.243-12.41 6.861-16.325 4.618-3.904 10.063-5.797 16.567-5.797 6.508 0 12.057 1.893 16.558 5.797 4.619 3.908 6.87 9.343 6.87 16.326v19.412c0 7.34-2.02 12.889-6.157 16.564-4.142 3.68-8.87 5.571-14.433 5.571-4.139 0-7.57-.95-10.179-2.958v22.71zm14.68-61.424c.832-10.873-15.511-10.873-14.667 0v19.646c-.837 10.899 15.509 10.899 14.668 0V57.426zm74.016 44.379c0 13.852-9.363 22.36-24.378 22.36-6.976 0-12.896-1.761-17.507-5.203-1.427-1.062-2.127-2.372-2.127-4.012 0-2.018.708-4.02 2.244-5.812 1.54-1.762 3.074-2.712 4.732-2.712 1.067 0 2.126.347 2.97.95 2.482 2.003 5.432 3.07 8.866 3.07 5.326 0 9.112-3.432 9.112-9.003v-5.315c-2.608 2.01-6.037 2.955-10.179 2.955-5.556 0-10.29-1.888-14.43-5.578-4.136-3.665-6.151-9.214-6.151-16.554v-36.2c0-3.206 2.722-4.859 8.04-4.859 5.325 0 8.047 1.653 8.047 4.859v36.316c-.816 10.899 15.505 10.899 14.673 0V40.751c0-3.206 2.73-4.859 8.048-4.859 5.325 0 8.047 1.653 8.047 4.859v61.052h-.007v.002zm60.129-8.04c0 3.191-2.722 4.85-8.04 4.85-5.326 0-8.058-1.659-8.058-4.85v-1.07c0-5.21-.712-9.23-2.015-11.945-1.302-2.722-3.667-5.444-7.1-8.05l-3.898 2.481c-1.543.956-2.258 1.889-2.258 2.963v15.621c0 3.191-2.714 4.85-8.047 4.85-5.313 0-8.04-1.659-8.04-4.85V40.761c0-3.206 2.73-4.859 8.04-4.859 5.333 0 8.047 1.653 8.047 4.859V60.99c.236-.357.948-.948 2.018-1.653l3.19-2.01c5.57-3.43 8.29-8.166 8.29-14.199v-2.36c0-3.206 2.721-4.856 8.04-4.856 5.324 0 8.04 1.65 8.04 4.856v2.244c0 9.821-2.716 15.735-10.763 21.531 4.725 3.43 8.047 7.216 9.822 11.122 1.764 3.909 2.722 9.343 2.722 16.336v1.762h.01v.002zM319.9 54.707c0 3.206-2.722 4.856-8.04 4.856s-8.047-1.655-8.047-4.856v-.822c0-5.084 2.126-9.35 6.268-13.02 4.14-3.668 9.7-5.44 16.447-5.44 14.194 0 23.423 8.52 23.423 21.885v20.12c0 6.983-2.243 12.42-6.73 16.077-4.397 3.69-9.95 5.579-16.695 5.579-6.864 0-12.432-1.889-16.686-5.668-4.273-3.913-6.4-8.522-6.4-13.852 0-8.754 5.217-14.447 15.512-16.921l9.815-2.367c3.421-.824 5.087-1.896 5.087-3.43v-1.772c0-4.134-2.73-6.501-6.976-6.501-4.266 0-6.988 2.6-6.988 5.8v.33h.01v.002zm13.961 23.792v-7.092c-.476.467-1.531.93-3.191 1.407l-6.268 1.653c-3.197.839-4.857 2.732-4.857 5.568 0 3.673 2.956 5.919 7.226 5.919 4.609 0 7.09-2.842 7.09-7.455zm30.808 19.165c-1.544 0-3.08-1.534-3.08-3.07V39.922c0-1.536 1.536-3.072 3.08-3.072h22.368c12.181 0 19.514 6.747 19.514 16.092 0 5.564-2.124 9.815-6.263 12.897 5.315 2.843 7.918 7.578 7.918 14.315 0 9.946-7.566 17.512-20.703 17.512H364.67v-.002zm13.017-47.809V60.27h7.09c3.794 0 5.678-1.772 5.678-5.208 0-3.427-1.884-5.207-5.678-5.207h-7.09zm0 23.2v11.593h8.038c4.27 0 6.385-1.89 6.385-5.796 0-3.901-2.117-5.797-6.385-5.797h-8.038zm70.405-14.681L434.84 74.467V93.75c0 3.206-2.725 4.864-8.055 4.864-5.315 0-8.04-1.658-8.04-4.864V40.753c0-3.206 2.727-4.858 8.04-4.858 5.33 0 8.055 1.652 8.055 4.858v14.785l13.13-16.46c1.769-2.126 4.488-3.193 8.168-3.193 5.326 0 8.04 1.652 8.04 4.858v53.005c0 3.191-2.717 4.849-8.04 4.849-5.322 0-8.047-1.658-8.047-4.85V58.375zm58.203-17.621c0-3.206 2.717-4.858 8.04-4.858 5.323 0 8.048 1.652 8.048 4.858V93.75c0 3.206-2.728 4.864-8.048 4.864-5.325 0-8.04-1.658-8.04-4.864V76.717c-2.372 2.244-5.806 3.318-10.427 3.318-5.563 0-10.286-1.903-14.425-5.568-4.02-3.663-6.04-9.221-6.04-16.56V40.754c0-3.206 2.727-4.858 8.048-4.858 5.32 0 8.04 1.652 8.04 4.858v15.735c0 6.504 2.491 9.822 7.347 9.822 4.96 0 7.455-3.315 7.455-9.822V40.753h.002zm76.226 53.012c0 3.191-2.72 4.85-8.047 4.85-5.325 0-8.04-1.659-8.04-4.85v-1.07c0-5.21-.717-9.23-2.018-11.945-1.3-2.722-3.667-5.444-7.1-8.05l-3.912 2.481c-1.529.956-2.244 1.889-2.244 2.963v15.621c0 3.191-2.724 4.85-8.04 4.85-5.322 0-8.055-1.659-8.055-4.85V40.761c0-3.206 2.735-4.859 8.055-4.859 5.318 0 8.04 1.653 8.04 4.859V60.99c.244-.357.95-.948 2.018-1.653l3.191-2.01c5.563-3.43 8.28-8.166 8.28-14.199v-2.36c0-3.206 2.735-4.856 8.056-4.856 5.317 0 8.04 1.65 8.04 4.856v2.244c0 9.821-2.725 15.735-10.765 21.531 4.735 3.43 8.055 7.216 9.824 11.122 1.77 3.909 2.72 9.343 2.72 16.336v1.764h-.003zm26.078-39.058c0 3.206-2.727 4.856-8.055 4.856-5.315 0-8.04-1.655-8.04-4.856v-.822c0-5.084 2.122-9.35 6.271-13.02 4.132-3.668 9.695-5.44 16.442-5.44 14.207 0 23.428 8.52 23.428 21.885v20.12c0 6.983-2.243 12.42-6.747 16.077-4.375 3.69-9.938 5.579-16.683 5.579-6.876 0-12.415-1.889-16.693-5.668-4.253-3.913-6.382-8.522-6.382-13.852 0-8.754 5.21-14.447 15.509-16.921l9.817-2.367c3.417-.824 5.082-1.896 5.082-3.43v-1.772c0-4.134-2.72-6.501-6.98-6.501-4.254 0-6.974 2.6-6.974 5.8v.332h.005zm13.951 23.792v-7.092c-.474.467-1.528.93-3.194 1.407l-6.268 1.653c-3.193.831-4.849 2.732-4.849 5.568 0 3.673 2.966 5.919 7.226 5.919 4.599 0 7.085-2.842 7.085-7.455zm-511.51-11.727c-.124-.241-.248-.47-.377-.705a14.565 14.565 0 00-3.316-4.032c-1.126-.956-3.89-3.06-9.466-4.085 0 0 5.32-4.727 8.578-10.184 1.258-2.104 7.703-12.874 5.434-23.988-1.87-9.269-8.908-21.083-26.44-22.912 0 0-47.907-6.745-52.344 61.913-1.764 27.314-.293 55.05-.293 59.444 0 4.382 3.97-9.938 25.525-15.078 19.241-4.6 43.185-3.605 53.361-24.393 1.698-4.03 1.998-10.638-.662-15.98z" fill="#FFF"/><path d="M111.039 66.772c-.124-.241-.248-.47-.377-.705a14.565 14.565 0 00-3.316-4.032c-1.126-.956-3.89-3.06-9.466-4.085 0 0 5.32-4.727 8.578-10.184 1.258-2.104 7.703-12.874 5.434-23.988-1.87-9.269-8.908-21.083-26.44-22.912 0 0-47.907-6.745-52.344 61.913-1.764 27.314-.293 55.05-.293 59.444 0 4.382 3.97-9.938 25.525-15.078 19.241-4.6 43.185-3.605 53.361-24.393 1.698-4.03 1.998-10.638-.662-15.98zM91.023 88.676c-6.598 3.777-12.559 5.308-23.673 7.077-17.73 2.816-23.79 6.67-23.79 6.67-.087-11.849.161-39.16 3.283-53.143 3.816-17.038 11.864-25.04 19.919-29.034 8.819-4.362 17.579-2.17 19.574-1.24 14.97 6.992 12.938 22.234 10.407 27.656a61.697 61.697 0 01-10.784 16.025c-.594.683-.889 2 .908 1.985.139 0 1.126-.168 1.36-.21 3.407-.787 7.313-.626 10.66 2.25 8.003 6.866-1.077 18.08-7.864 21.964z" fill="#FF9012"/><path d="M49.35 119.99c-7.58 3.831-11.974 10.605-14.021 16.539-1.204 3.476-.603 3.98 2.25 2.288 3.653-2.16 10.152-4.99 18.592-5.683 19.368-1.59 30.768-4.496 34.986-23.572.206-.933.417-1.657-1.427-.933-17.122 6.832-25.757 3.973-40.38 11.36z" fill="#C4D600"/></g></svg>