<svg width="218" height="320" xmlns="http://www.w3.org/2000/svg"><g fill="#EA0228"><path d="M109.196 193.22c-52.965.099-96.244-43.185-96.312-96.309C12.824 43.767 55.903.481 108.976.367c53.489-.104 96.646 42.91 96.744 96.438.114 53.171-43.072 96.3-96.524 96.416zM63.842 72.1c.208-.057.403-.124.611-.184 1.735 2.446 3.49 4.892 5.194 7.375 2.268 3.273 3.93 3.332 6.259.128 1.771-2.476 3.504-4.998 5.257-7.503.232.117.48.223.731.349v19.638h8.703V59.402c-1.703 0-3.244.173-4.716-.029-3.015-.414-4.928.73-6.45 3.34-1.772 3.024-3.96 5.798-6.124 8.906-2.446-3.724-4.584-7.075-6.811-10.348-.486-.714-1.242-1.678-1.935-1.714-3.004-.196-6.03-.08-9.353-.08 0 10.59-.029 20.757.067 30.922 0 .579.987 1.58 1.588 1.637 2.201.201 4.415.077 6.979.077V72.1zm32.3 63.013c.578.172.866.326 1.155.326 6.624.04 13.248.058 19.873.058 5.68 0 5.68 0 5.42-5.738-.01-.192-.164-.367-.404-.925h-16.801v-6.614h13.248v-6.402h-8.797c-5.008 0-5.026 0-4.64-5.112.036-.375.221-.74.441-1.454h16.81c0-1.212-.096-2.04.022-2.83.442-2.946-.721-3.902-3.679-3.757-4.584.24-9.184.06-13.768.06h-8.877c-.004 11.073-.004 21.64-.004 32.388zm33.752-42.998c-2.637-8.432-5.101-16.269-7.547-24.124-2.685-8.683-2.676-8.587-11.781-8.654-2.446-.019-3.353.915-4.028 3.053-2.425 7.651-5.024 15.268-7.547 22.893-.683 2.09-1.386 4.199-2.263 6.855 2.61 0 4.709-.078 6.806.028 1.598.076 2.637-.491 2.772-2.09.298-4.022 2.637-4.987 6.2-4.387a6.477 6.477 0 002.118 0c2.868-.481 4.303.595 4.775 3.54.174 1.062 1.425 2.609 2.377 2.754 2.497.403 5.077.132 8.118.132zm6.123-33.08v33.1c2.291 0 4.409-.097 6.528.019 1.945.116 2.406-.817 2.406-2.562-.076-5.603-.019-11.204-.019-16.81v-6.546c5.312-.538 8.665.77 9.107 3.697.866 5.565-3.37 6.614-8.328 7.664 1.822.964 2.784 1.657 3.864 2.022 5.41 1.75 11.639-1.213 13.285-6.24 1.812-5.543-1.31-11.802-7.441-12.899-6.308-1.127-12.874-1-19.402-1.445zm25.533 50.564c0-1.838-.076-3.16.02-4.45.155-1.946-.79-2.445-2.562-2.425-8.259.037-16.52.104-24.799-.02-3.1-.039-2.332 2.04-2.474 3.736-.155 1.963.085 3.4 2.684 3.177 2.41-.193 4.833-.04 7.605-.04v3.65c0 6.526-.055 13.065.077 19.591.02.897.925 2.456 1.56 2.534 2.378.297 4.824.124 7.614.124V109.6h10.275zm-87.81 8.626c6.19-3.294 9.29-8.76 11.599-15.48-3.07 0-5.603-.08-8.124.057-.647.048-1.617.674-1.8 1.23-1.955 5.7-5.098 10.591-9.594 14.095 1.41 2.841 2.613 5.391 3.946 7.894 1.243 2.311 2.364 4.775 4.021 6.779 3.023 3.679 9.763 4.005 12.861 1.484l-12.91-16.06zm-9.533-15.462c-2.575 0-5.002-.133-7.385.108-.6.057-1.549 1.27-1.56 1.954-.11 9.56-.11 19.121 0 28.668.011.664 1.006 1.838 1.627 1.887 2.387.23 4.809.096 7.316.096.002-11.07.002-21.699.002-32.713zM179.38 260.48c.636-1.215 1.327-2.428 1.945-3.66 5.352-10.542 10.772-21.045 16-31.654 1.023-2.06 2.233-2.687 4.451-2.62 5.275.156 10.552.042 16 .042v58.494h-14.583V244a24.29 24.29 0 00-.791-.222c-.434.683-.915 1.347-1.282 2.062-5.717 11.042-11.457 22.054-17.099 33.146-.825 1.657-1.74 2.368-3.679 2.311-5.41-.155-10.82-.047-16.48-.047v-58.372h14.672v37.344c.275.094.575.18.846.259zm-74.303-10.67c.98.383 1.637.626 2.28.887 7.028 2.619 10.65 6.93 10.813 12.9.194 6.49-3.524 12.294-10.148 14.905-3.353 1.308-7.048 2.366-10.61 2.503-9.86.328-19.737.116-29.855.116v-58.034c.078-.076.237-.316.386-.316 10.984.153 21.98.143 32.945.626 2.687.116 5.536 1.463 7.925 2.87 8.316 4.908 8.556 15.47.616 20.946-1.331.885-2.736 1.635-4.352 2.597zm-21.835 20.364c4.755-.339 9.328-.339 13.766-1.05 3.438-.556 4.928-2.929 4.871-6.066-.057-3.081-1.675-5.548-4.928-6.057-4.468-.665-9.011-.701-13.71-1.032v14.205zm.01-23.695c4.323-.423 8.385-.499 12.294-1.308 2.676-.559 4.217-2.831 4.08-5.72-.134-2.792-1.868-4.69-4.475-5.064-3.86-.557-7.809-.577-11.9-.836v12.928zm-28.478 19.718c-.298 5.817-2.715 9.696-6.904 11.977-10.761 5.874-21.915 5.218-32.564-.057-9.953-4.951-14.272-13.921-14.58-24.759-.49-17.754 10.768-29.98 28.521-31.36 6.46-.489 12.81-.126 19.076 1.65 1.665.462 2.417 1.222 2.387 2.934-.047 2.63-.009 5.257-.009 7.886-4.21-.532-8.501-1.214-12.81-1.502-2.295-.175-4.68.133-6.968.567-6.645 1.261-10.99 5.189-12.448 11.842-1.506 6.885-1.3 13.603 3.49 19.391 3.379 4.08 8.101 5.208 13.08 5.612 6.713.546 13.119-.791 19.729-4.18zm76.498-43.342h15.413v58.264h-15.413v-58.264zm44.103-18.717c3.186 3.92 7.087 3.9 11.292 2.986 4.052-.887 8.134-2.177 12.219-2.196 6.488-.067 10.128 5.008 9.03 11.881-4.277-3.273-8.761-2.252-13.42-1.194-3.737.846-7.625 1.51-11.437 1.404-6.934-.21-10.256-5.852-7.684-12.881zm-49.794 98.99c3.486 1.396 4.313 2.676 3.592 5.45-.77 2.868-3.583 4.602-6.622 3.879-.706-.184-1.763-1.032-1.782-1.59-.143-3.726-.134-7.47.039-11.206.039-.924.638-2.136 1.378-2.617.972-.616 2.609-1.174 3.455-.75.827.411 1.414 2.107 1.367 3.214-.039 1.213-.907 2.405-1.427 3.62zm-3.522 4.734c.99 1.407 1.578 2.253 2.175 3.082.789-1.135 1.847-2.175 2.252-3.438.184-.567-.99-1.55-1.54-2.338-.885.81-1.731 1.618-2.887 2.694zm-62.082-4.696c3.52 1.356 4.376 2.656 3.61 5.459-.779 2.841-3.659 4.582-6.659 3.821-.687-.173-1.683-1.06-1.714-1.647-.128-3.725-.1-7.472.049-11.195.028-.838.524-2.012 1.174-2.387 1.094-.618 2.662-1.254 3.695-.905.748.249 1.33 2.128 1.28 3.234-.055 1.213-.925 2.408-1.435 3.62zm-2.513 7.721c3.143.171 3.539-1.783 3.461-3.697-.035-.693-1.45-2.022-1.887-1.89-3.076.938-1.337 3.363-1.574 5.587zm-.403-8.028c.462.114.933.228 1.402.326.414-1.771.838-3.553 1.262-5.334-.475-.116-.958-.22-1.431-.347-.416 1.79-.82 3.583-1.233 5.355zm-4.537 7.219c-.196 1.859-2.16 3.428-5.127 3.524-3.64.133-6.783-2.562-7.455-6.337-.848-4.773 1.453-9.78 5.087-11.051 3.017-1.06 5.483-.202 7.12 2.945-1.044-.26-1.835-.24-2.326-.617-2.464-1.867-4.09-1.578-5.275 1.214-.544 1.29-.938 2.723-1.015 4.12-.149 2.694.077 5.776 2.82 6.864 1.666.665 4.01-.375 6.17-.662zm38.921-.991c-1.367-.085-2.81-.163-4.255-.24.152-1.598-.155-3.447.538-4.745 1.127-2.13 3.118-3.218 6.49-1.916-3.409.807-5.526 2.032-4.603 6.276.807-1.356 1.213-2.136 1.724-2.811.432-.597.99-1.078 1.49-1.616.502.538 1.254.99 1.425 1.598 1.137 4.253.414 8.356-1.906 11.974-.674 1.042-2.83 2.063-3.927 1.753-2.196-.616-1.696-2.85-.887-4.352 1.158-2.215 2.725-4.19 3.911-5.92zm-3.12 9.125c.501.166 1 .318 1.492.471.626-2.06 1.23-4.119 1.859-6.18-.445-.132-.867-.269-1.31-.405a565.62 565.62 0 01-2.041 6.114zm-11.053-15.343c3.092.277 2.205 2.356 2.368 3.917.155 1.551.385 3.09.683 5.45a402.25 402.25 0 01-4.168-1.734c.104-.086-.174.249-.54.385-1.154.442-2.846 1.451-3.427 1.027-.894-.66-1.29-2.299-1.467-3.579-.237-1.685-.057-3.438-.057-5.134 2.41-.999 3.026.09 2.93 2.187-.056 1.453 0 2.919 0 4.745 4.065-1.404 3.235-4.541 3.678-7.264zm62.22 3.791c-.028 3.108-2.166 5.768-4.708 5.843-2.224.058-4.199-1.964-4.256-4.351-.057-2.138 3.294-5.834 5.314-5.874 2.16-.068 3.67 1.773 3.65 4.382zm-5.267-2.532c-.269 1.829-.75 3.253-.635 4.631.085.875 1.041 1.674 1.618 2.511.49-1.463 1.231-2.888 1.396-4.374.145-1.526-.259-3.122-2.379-2.768zm-29.034 2.638c-.057 3.1-2.28 5.737-4.804 5.737-2.205-.018-4.168-2.107-4.14-4.449.02-2.118 3.457-5.795 5.402-5.776 2.097.022 3.601 1.928 3.542 4.488zm-5.19-2.648c-.325 1.877-.806 3.206-.7 4.476.077.946.941 1.802 1.453 2.695.528-1.52 1.357-3.013 1.529-4.57.154-1.494-.384-3.053-2.281-2.6zm58.141 2.648c-.02 3.16-2.167 5.737-4.745 5.737-2.28-.018-4.034-1.944-4.034-4.465 0-2.195 3.312-5.817 5.285-5.777 2.118.04 3.514 1.829 3.494 4.505zm-5.122-2.697c-.29 1.87-.557 3.12-.638 4.411-.076.75.022 1.561.263 2.252.104.29.815.375 1.26.557.52-1.54 1.365-3.043 1.481-4.603.118-1.48-.595-2.904-2.366-2.617zm-4.62 6.731c-1.06.605-2.082 1.636-3.18 1.722-1.136.098-2.897-.424-3.357-1.25-.471-.807.203-2.407.685-3.542.403-.98 1.212-1.792 2.299-3.294-1.694.387-2.685.618-3.68.83a54.787 54.787 0 01-.517-.597c1.125-.791 2.185-1.908 3.455-2.273.789-.23 2.598.465 2.735 1.021.249 1.076-.194 2.446-.638 3.563-.422 1.06-1.251 1.944-1.896 2.929.133.228.28.477.412.711 1.042-.22 2.071-.463 3.1-.685.196.275.388.587.581.864zm-29.327-6.2c-2.115.28-4.225.085-4.504.7-.597 1.303-.665 3.276-.04 4.509.405.789 2.445.73 4.216 1.174-.98 1.657-2.715 1.78-4.563 1.404-2.442-.48-3.696-2.619-3.29-5.362.383-2.803 2.684-4.833 5.252-4.323.985.193 1.833 1.157 2.93 1.897zm-52.559-.885c.64.742 1.714 1.414 1.842 2.223.265 1.676.106 3.429-.07 5.14-.048.52-.729.983-1.112 1.464-.524-.479-1.46-.921-1.496-1.435-.169-2.203-.073-4.427-.073-6.65.297-.24.6-.481.909-.742zm5.212-4.266h6.797c-.52 2.29-2.407 2.331-4.062 2.003-.98-.193-1.796-1.288-2.735-2.003zm97.746 13.921c-.721-1.136-1.608-1.945-1.455-2.446.165-.606 1.174-1.213 1.898-1.309.424-.057 1.455 1.001 1.377 1.348-.193.71-.925 1.29-1.82 2.407zm7.214 0c-.695-1.174-1.543-2.002-1.388-2.505.193-.595 1.249-1.154 1.964-1.231.424-.047 1.423 1.051 1.33 1.349-.253.732-.973 1.29-1.906 2.387zm-14.521.018c-.731-1.152-1.638-1.983-1.483-2.464.203-.616 1.212-1.193 1.944-1.309.422-.057 1.463 1.001 1.386 1.327-.22.732-.94 1.31-1.847 2.446z"/><path d="M116.493 79.04h-6.873c1.117-3.773 2.157-7.334 3.204-10.878.206-.039.406-.057.608-.098.992 3.565 1.983 7.107 3.061 10.976z"/></g></svg>